<svg version="1.1" xmlns="http://www.w3.org/2000/svg" viewBox="0 0 1107.349748333301 370.6182251309719" width="1107.349748333301" height="370.6182251309719" class="excalidraw-svg">
  <!-- svg-source:excalidraw -->
  
  <defs>
    <style class="style-fonts">
      
    </style>
    
  </defs>
  <rect x="0" y="0" width="1107.349748333301" height="370.6182251309719" fill="#ffffff"></rect><g stroke-opacity="0.8" fill-opacity="0.8" stroke-linecap="round" transform="translate(10 10) rotate(0 62.07385066475558 58.62530340560225)"><path d="M23.05 12.09 C23.05 12.09, 23.05 12.09, 23.05 12.09 M23.05 12.09 C23.05 12.09, 23.05 12.09, 23.05 12.09 M4.58 48.65 C16.4 33.23, 25.9 22.48, 36.28 7.74 M4.18 44.14 C12.18 37.95, 21.42 29.62, 41.77 3.71 M-1.21 58.82 C21.89 36.4, 43.83 13.27, 53.66 4.34 M2.47 60.08 C17.55 42.28, 31.59 26.97, 54.62 1.29 M2.81 74.14 C25.34 49.12, 45.18 29.76, 62.42 3.67 M2.77 71.85 C21.21 48.4, 41.67 28.66, 62.4 0.49 M6.93 78.24 C25.09 59.95, 43.16 32.63, 69.08 2.89 M7.16 82.56 C29.69 54.76, 54.22 22.87, 70.87 4.15 M10.48 92.53 C27.2 65.79, 46.73 47.71, 85.52 8.12 M9.81 90.95 C22.43 72.38, 38.18 51.72, 80.97 6.27 M13.79 94.84 C27.14 76.99, 42.65 54.67, 91.59 5.55 M16.15 93.89 C42.58 65.37, 66.54 37.44, 88.5 8.93 M18.14 98.58 C47.23 62.52, 78.86 29.83, 100.8 12.75 M20.03 99.37 C50.6 64.73, 77.7 32.88, 97.13 13.43 M22.22 105.06 C45.31 80.55, 67.92 63.18, 106.35 19.64 M27.34 106.6 C57.55 70.9, 87.65 35.91, 105.48 15.05 M29.97 109.64 C50.78 88.66, 69.34 68.58, 108.98 22.54 M33.05 109.98 C52.77 87.31, 71.09 68.11, 110.25 20.94 M41.88 117.12 C65.37 83.25, 94.22 50.29, 114.09 32.32 M39.68 114.28 C65.66 85.09, 90.58 55.63, 112.53 28.05 M47.51 115.09 C66.29 93.38, 92.1 71.36, 115.69 33.02 M47.04 117.88 C65.75 97.07, 85.28 78.84, 120.86 37.61 M56.66 120.32 C74.34 100.12, 92.99 73.82, 120.28 44 M58.55 118.88 C77.64 98.69, 94.59 77.54, 124.37 43.02 M67.87 120.1 C87.73 92.79, 104.34 77.45, 123.42 53.8 M70.96 118.31 C82.25 101.25, 94.36 88.7, 124.51 55.6 M87.15 116.96 C97.02 94.73, 115.49 76.18, 120.78 69.49 M84.26 112.63 C98.4 98.83, 109.98 82.34, 123.29 67.71 M104.8 99.59 C105.41 95.1, 111.59 89.53, 116.04 86.17 M103.88 101.9 C106.19 98.27, 111.04 94.73, 114.72 89.27" stroke="#ffffff" stroke-width="1" fill="none"></path><path d="M22.91 12.25 C29.44 6.15, 40.67 1.63, 50.21 0.31 C59.75 -1.02, 71.06 1.59, 80.13 4.29 C89.19 6.99, 97.45 10.18, 104.61 16.5 C111.76 22.82, 119.74 33.53, 123.06 42.2 C126.38 50.88, 126.49 59.57, 124.51 68.54 C122.54 77.51, 117.38 88.75, 111.21 96.02 C105.05 103.29, 96.38 108.33, 87.52 112.17 C78.66 116.01, 67.42 119.35, 58.05 119.05 C48.67 118.74, 39.48 115.22, 31.27 110.34 C23.07 105.46, 13.9 97.69, 8.8 89.79 C3.7 81.9, 0.95 72.2, 0.66 62.96 C0.38 53.71, -3.53 44.47, 7.08 34.32 C17.7 24.16, 47.95 5.16, 64.34 2.03 C80.73 -1.09, 105.56 14.91, 105.42 15.57" stroke="#000000" stroke-width="2.5" fill="none" stroke-dasharray="8 10"></path></g><g stroke-linecap="round"><g stroke-opacity="0.8" fill-opacity="0.8" transform="translate(47.445247008531396 127.25060681120581) rotate(0 35.78414729397866 47.056949661220095)" fill-rule="evenodd"><path d="M4.24 3.94 C5.71 12.9, 8.77 38.14, 8.54 54.37 C8.3 70.59, -6.65 93.54, 2.85 101.28 C12.35 109.01, 54.01 111.76, 65.55 100.79 C77.1 89.82, 72.02 52.94, 72.11 35.45 C72.19 17.96, 74.25 2.48, 66.06 -4.15 C57.88 -10.78, 34.01 -5.32, 23.02 -4.34 C12.03 -3.36, 3.32 0.95, 0.12 1.73" stroke="none" stroke-width="0" fill="#b2f2bb" fill-rule="evenodd"></path><path d="M-1.83 -0.43 C-1.17 7.89, 4.75 35.74, 5.08 52.19 C5.41 68.64, -9.32 90.9, 0.14 98.27 C9.61 105.64, 49.61 106.8, 61.85 96.43 C74.1 86.07, 73.87 52.8, 73.63 36.1 C73.38 19.41, 67.97 1.99, 60.38 -3.72 C52.79 -9.43, 38.41 1.1, 28.07 1.87 C17.73 2.63, 2.83 1.08, -1.66 0.89" stroke="#000000" stroke-width="2.5" fill="none" stroke-dasharray="8 10"></path></g></g><mask></mask><g stroke-opacity="0.8" fill-opacity="0.8" transform="translate(57.66972045217983 74.86918660617323) rotate(0 0.00008276513420923948 0.0000827651342163449)" stroke="none"><path fill="#000000" d="M 1.57,-1.57 Q 1.57,-1.57 1.77,-1.27 1.98,-0.98 2.09,-0.64 2.20,-0.29 2.19,0.05 2.18,0.41 2.05,0.75 1.93,1.09 1.70,1.37 1.48,1.65 1.18,1.84 0.87,2.04 0.52,2.12 0.18,2.21 -0.17,2.18 -0.53,2.15 -0.86,2.01 -1.19,1.87 -1.46,1.63 -1.73,1.39 -1.90,1.07 -2.08,0.76 -2.15,0.41 -2.21,0.05 -2.17,-0.29 -2.12,-0.65 -1.96,-0.97 -1.80,-1.29 -1.54,-1.54 -1.29,-1.80 -0.97,-1.96 -0.65,-2.12 -0.29,-2.17 0.06,-2.21 0.41,-2.15 0.76,-2.08 1.07,-1.90 1.39,-1.73 1.63,-1.46 1.87,-1.19 2.01,-0.86 2.15,-0.53 2.18,-0.17 2.21,0.18 2.12,0.52 2.03,0.87 1.84,1.18 1.65,1.48 1.37,1.70 1.09,1.93 0.75,2.05 0.41,2.18 0.05,2.19 -0.30,2.20 -0.64,2.09 -0.98,1.98 -1.27,1.77 -1.57,1.56 -1.57,1.57 -1.57,1.57 -1.73,1.35 -1.90,1.14 -2.01,0.90 -2.12,0.66 -2.16,0.39 -2.21,0.13 -2.20,-0.13 -2.18,-0.40 -2.10,-0.65 -2.02,-0.91 -1.88,-1.14 -1.74,-1.36 -1.55,-1.55 -1.36,-1.74 -1.14,-1.88 -0.91,-2.02 -0.65,-2.10 -0.40,-2.18 -0.13,-2.20 0.13,-2.21 0.39,-2.16 0.66,-2.12 0.90,-2.01 1.14,-1.90 1.35,-1.73 1.57,-1.57 1.57,-1.57 L 1.57,-1.57 Z"></path></g><g stroke-opacity="0.8" fill-opacity="0.8" transform="translate(100.02685154772843 56.952697089253036) rotate(0 0 -1.1939144982581027)" stroke="none"><path d="M0.21 -1.14 C0.21 -1.14, 0.21 -1.14, 0.21 -1.14 M0.21 -1.14 C0.21 -1.14, 0.21 -1.14, 0.21 -1.14 M0 0 C0 0, 0 0, 0 0 M0 0 C0 0, 0 0, 0 0" stroke="#ffffff" stroke-width="0.5" fill="none"></path><path fill="#000000" d="M 2.12,-0.66 Q 2.12,-0.66 2.15,-0.13 2.18,0.40 1.96,0.88 1.74,1.36 1.32,1.69 0.91,2.02 0.38,2.12 -0.13,2.21 -0.64,2.05 -1.14,1.90 -1.52,1.52 -1.90,1.14 -2.05,0.64 -2.21,0.13 -2.12,-0.38 -2.02,-0.91 -1.69,-1.32 -1.36,-1.74 -0.88,-1.96 -0.39,-2.18 0.13,-2.15 0.66,-2.11 1.11,-1.84 1.57,-1.56 1.84,-1.11 L 2.12,-0.66 Z"></path></g><g stroke-linecap="round"><g stroke-opacity="0.8" fill-opacity="0.8" transform="translate(81.75962560139868 83.41635808045234) rotate(180.707313349537 10.953002796551175 -4.10737604870674)"><path d="M-0.15 -0.26 C1.28 -1.66, 4.99 -8.51, 8.62 -8.7 C12.25 -8.89, 19.38 -2.61, 21.62 -1.4" stroke="#000000" stroke-width="1.5" fill="none" stroke-dasharray="8 9"></path></g></g><mask></mask><g stroke-linecap="round"><g stroke-opacity="0.8" fill-opacity="0.8" transform="translate(57.91199560848054 229.778621715496) rotate(0 1.209842579416403 63.3142078359937)"><path d="M-3.53 -2.11 C2.24 15.71, 1.77 27.03, -0.01 55.63 M2.61 57.61 C-2.11 74.74, -7.56 96.03, -12.17 119.64 M-13.24 112.9 C-8.73 119.41, 6.65 125.84, 17.55 124.76" stroke="#000000" stroke-width="2.5" fill="none" stroke-dasharray="8 10"></path></g></g><mask></mask><g stroke-linecap="round"><g stroke-opacity="0.8" fill-opacity="0.8" transform="translate(115.60302861310566 219.29363379318733) rotate(0 31.109311534517957 56.75682113850988)"><path d="M3.11 1 C11.98 15.79, 20.12 37.67, 27.36 47.61 M30.03 48.16 C32.31 69.58, 34.42 91.83, 33.39 110.65 M29.12 113.62 C45.95 110.04, 56.28 97.14, 60.9 95.49" stroke="#000000" stroke-width="2.5" fill="none" stroke-dasharray="8 10"></path></g></g><mask></mask><g stroke-linecap="round"><g stroke-opacity="0.8" fill-opacity="0.8" transform="translate(94.94362874590189 130.81701457767352) rotate(0 65.62355957918334 31.160899611459374)"><path d="M2.98 -2.37 C14.21 16.81, 25.91 30.32, 49.01 66.2 M51.03 63.48 C73.44 63.93, 93.67 57.25, 109.68 61.19 M107.41 63.08 C111.38 55.95, 114.87 57.07, 127.65 49.27" stroke="#000000" stroke-width="2.5" fill="none" stroke-dasharray="8 10"></path></g></g><mask></mask><g stroke-linecap="round"><g stroke-opacity="0.8" fill-opacity="0.8" transform="translate(112.98143432831807 122.72239333603316) rotate(0 50.995569787935096 25.07223014404584)"><path d="M1.27 1.63 C15.68 15.36, 29.28 34.63, 46.68 50.17 M45.74 49.27 C58.01 44.49, 75.78 50.07, 86 46.37 M90.21 48.68 C92.5 47.68, 94.35 42.64, 102.03 38.93" stroke="#000000" stroke-width="2.5" fill="none" stroke-dasharray="8 10"></path></g></g><mask></mask><g stroke-linecap="round" transform="translate(175.56149745096116 175.0698268028806) rotate(0 40.91833994371905 9.763449084988764)"><path d="M40.74 0.38 C48.97 0.25, 59.75 1.38, 66.51 2.66 C73.28 3.95, 79.7 6.18, 81.33 8.11 C82.97 10.03, 80.62 12.44, 76.32 14.23 C72.02 16.02, 63.64 18.04, 55.53 18.84 C47.43 19.64, 35.99 19.65, 27.69 19.04 C19.39 18.44, 10.29 16.97, 5.75 15.24 C1.22 13.51, -0.87 10.78, 0.5 8.67 C1.87 6.56, 7.22 3.98, 13.97 2.59 C20.73 1.2, 36.37 0.74, 41.04 0.33 C45.72 -0.08, 41.92 0, 42.02 0.13 M43.48 -0.15 C51.9 -0.02, 63.73 1.56, 70.07 3.13 C76.42 4.7, 80.69 7.29, 81.54 9.28 C82.39 11.27, 80.03 13.4, 75.16 15.06 C70.29 16.72, 60.75 18.57, 52.32 19.24 C43.9 19.91, 32.73 19.87, 24.63 19.06 C16.52 18.25, 7.61 16.36, 3.7 14.38 C-0.21 12.4, -1.14 9.2, 1.18 7.18 C3.5 5.16, 10.58 3.55, 17.64 2.25 C24.7 0.96, 39.16 -0.3, 43.53 -0.61 C47.9 -0.91, 43.85 0.1, 43.87 0.4" stroke="none" stroke-width="0" fill="#ffec99"></path><path d="M40.68 0.46 C48.99 0.27, 59.97 1.21, 66.72 2.51 C73.48 3.8, 79.52 6.23, 81.24 8.24 C82.95 10.25, 81.38 12.71, 77.04 14.56 C72.7 16.42, 63.41 18.71, 55.2 19.36 C46.99 20.02, 36.08 19.26, 27.77 18.5 C19.46 17.73, 9.87 16.44, 5.36 14.8 C0.85 13.16, -0.76 10.77, 0.71 8.67 C2.17 6.56, 7.22 3.58, 14.13 2.16 C21.04 0.73, 37.2 0.49, 42.16 0.13 C47.13 -0.22, 43.9 -0.07, 43.9 0.04 M43.28 -0.19 C51.68 -0.21, 62.57 0.51, 68.95 1.88 C75.33 3.25, 80.45 5.83, 81.56 8.06 C82.66 10.29, 80.23 13.3, 75.57 15.26 C70.91 17.23, 62.02 19.3, 53.6 19.84 C45.19 20.39, 33.4 19.48, 25.1 18.54 C16.8 17.59, 7.71 15.99, 3.8 14.17 C-0.11 12.36, -0.41 9.73, 1.66 7.66 C3.73 5.59, 9.26 3.17, 16.2 1.77 C23.14 0.37, 38.74 -0.37, 43.3 -0.73 C47.85 -1.09, 43.58 -0.68, 43.52 -0.42" stroke="#000000" stroke-width="1" fill="none"></path></g><g stroke-linecap="round"><g transform="translate(176.0593180334721 99.33715800284162) rotate(0 41.4070262036156 42.335301739353675)" fill-rule="evenodd"><path d="M-0.18 0.58 L0.09 85.16 L84.76 85.37 L84.4 -1.3 L0.8 -0.99" stroke="none" stroke-width="0" fill="#ffec99" fill-rule="evenodd"></path><path d="M0 0 C0.46 31.05, 1.93 60.05, -0.13 85.41 M0 0 C1.19 26.92, 0.6 51.74, -0.13 85.41 M-0.13 85.41 C30.91 86.29, 66.52 87.98, 82.94 85.41 M-0.13 85.41 C25.65 84.79, 50.54 85.7, 82.94 85.41 M82.94 85.41 C80.7 63.64, 82.06 40.69, 82.62 -0.74 M82.94 85.41 C83.21 68.18, 83.6 51.4, 82.62 -0.74 M82.62 -0.74 C56.88 0.4, 31.55 -1.09, 0 0 M82.62 -0.74 C60.99 -2.19, 37.96 -1.33, 0 0 M0 0 C0 0, 0 0, 0 0 M0 0 C0 0, 0 0, 0 0" stroke="transparent" stroke-width="1" fill="none"></path></g></g><mask></mask><g stroke-linecap="round" transform="translate(175.89946738771204 89.09073160959058) rotate(0 40.91833994371905 9.763449084988764)"><path d="M48.94 0.37 C57.19 0.5, 66.86 1.75, 72.34 3.33 C77.83 4.92, 81.9 7.74, 81.83 9.88 C81.77 12.03, 77.72 14.56, 71.96 16.22 C66.2 17.88, 55.97 19.47, 47.28 19.86 C38.6 20.25, 27.39 19.7, 19.86 18.58 C12.32 17.46, 5 15.14, 2.1 13.15 C-0.8 11.15, -0.65 8.6, 2.46 6.6 C5.58 4.6, 12.49 2.18, 20.79 1.15 C29.08 0.13, 46.57 0.52, 52.23 0.47 C57.9 0.42, 55.05 0.78, 54.76 0.87 M38.38 0.51 C46.63 0.18, 58.6 0.55, 65.71 1.73 C72.81 2.9, 78.95 5.44, 81 7.58 C83.05 9.71, 82.04 12.6, 78.01 14.52 C73.98 16.44, 64.95 18.36, 56.82 19.1 C48.68 19.83, 37.41 19.52, 29.18 18.93 C20.94 18.34, 12.3 17.37, 7.42 15.55 C2.53 13.73, -1.03 10.13, -0.13 8.01 C0.76 5.9, 6.35 4.16, 12.78 2.86 C19.22 1.56, 34.25 0.67, 38.47 0.22 C42.68 -0.24, 37.95 0.08, 38.07 0.13" stroke="none" stroke-width="0" fill="#ffec99"></path><path d="M50.33 0.59 C58.61 0.87, 68.8 2.26, 73.98 3.96 C79.16 5.66, 81.92 8.78, 81.42 10.77 C80.92 12.77, 77.01 14.49, 71 15.94 C64.99 17.39, 54.07 19.06, 45.37 19.47 C36.67 19.88, 26.04 19.56, 18.78 18.38 C11.52 17.2, 4.42 14.42, 1.81 12.37 C-0.8 10.32, -0.24 7.98, 3.11 6.06 C6.47 4.14, 13.56 1.83, 21.95 0.86 C30.34 -0.1, 47.72 0.29, 53.47 0.28 C59.22 0.28, 56.73 0.63, 56.44 0.85 M38.19 -0.47 C46.47 -0.57, 58.14 0.64, 65.32 2.08 C72.5 3.52, 79.19 6.21, 81.26 8.17 C83.33 10.13, 81.82 12.09, 77.74 13.84 C73.65 15.58, 64.7 17.75, 56.78 18.65 C48.86 19.54, 38.5 19.82, 30.19 19.21 C21.89 18.6, 11.87 16.87, 6.94 14.99 C2 13.12, -0.46 10.13, 0.58 7.98 C1.61 5.83, 6.87 3.45, 13.16 2.1 C19.45 0.76, 34.19 0.28, 38.32 -0.11 C42.46 -0.49, 37.96 -0.48, 37.96 -0.2" stroke="#000000" stroke-width="1" fill="none"></path></g><g stroke-linecap="round"><g transform="translate(176.17121348550415 99.49472506794842) rotate(0 -0.17241033935604833 43.59812184086195)"><path d="M0 0 C0.79 35.93, 1.09 70.58, -0.34 87.2 M0 0 C0.94 32.56, -1.14 63.38, -0.34 87.2" stroke="#000000" stroke-width="1" fill="none"></path></g></g><mask></mask><g stroke-linecap="round"><g transform="translate(259.1245643126123 98.98548658216833) rotate(0 -0.35395500132690927 43.39602495300753)"><path d="M0 0 C0.37 35.31, 0.88 68.19, -0.71 86.79 M0 0 C-0.32 18.89, 0.54 40.06, -0.71 86.79" stroke="#000000" stroke-width="1" fill="none"></path></g></g><mask></mask><g stroke-opacity="0.8" fill-opacity="0.8" stroke-linecap="round" transform="translate(294.6676927769449 16.19973917016739) rotate(0 62.07385066475559 58.62530340560225)"><path d="M13.93 22.71 C13.93 22.71, 13.93 22.71, 13.93 22.71 M13.93 22.71 C13.93 22.71, 13.93 22.71, 13.93 22.71 M3.83 45.07 C19.82 34.38, 26.02 15.28, 37.66 8.55 M4 47.26 C12.84 33.99, 22.23 23, 38.99 7.15 M4.39 59.52 C16.22 36.9, 26.49 27.57, 50.1 4.5 M6.88 54.78 C23.73 36.36, 40.79 18.44, 50.53 3.06 M3.33 68.77 C20.29 42.5, 39.47 27.9, 62.97 2.59 M5.83 67.49 C22.05 46.96, 41.29 27.74, 67.08 -2.46 M6.46 80.51 C18.78 64.96, 36.9 42.35, 77.51 3.53 M4.24 79.88 C31.26 52.35, 57.87 25.02, 75.88 3.39 M13.8 85.88 C35.24 61.06, 62.7 31.17, 80.24 2.33 M9.8 86.21 C36.74 61.77, 61.09 34.56, 83.95 4.78 M16.83 92.5 C34.96 69.32, 56.5 45.78, 88.11 11.81 M15.66 94.88 C45.97 62.41, 75.03 27.12, 88.97 7.94 M22.87 98.22 C49.4 71.7, 75.22 36.64, 99.16 9.17 M18.54 101.23 C46.14 67.69, 73.12 39.58, 97.82 12.95 M26.62 106.52 C49.29 79.47, 70.86 49.29, 101.97 16.14 M26.15 104.17 C51.73 79.8, 70.01 53.65, 101.79 17.05 M32.43 107.39 C55.55 90.06, 73.03 73.05, 107.77 21.04 M33.23 110.31 C58.26 78.93, 81.45 53.33, 108.54 21.9 M42.92 113.23 C55.29 94.6, 74.78 75.86, 115.96 31.5 M41.99 110.94 C60.7 91.06, 78.52 69.43, 113.4 29.49 M49.89 114.93 C71.69 90.54, 92.22 68.11, 122.24 36.53 M46.85 117.4 C66.36 93.3, 84.73 71.94, 119.35 37.37 M61.61 119.23 C69.84 103.15, 85.13 87.32, 125.24 40.62 M57.54 115.55 C80.38 90.75, 103.16 65.75, 121.44 43.99 M67.94 116.21 C89.6 96.55, 101.27 80.23, 126.19 51.67 M69.96 116.5 C90.48 93.44, 112.74 67.55, 126.26 53.75 M82.12 117.06 C100.04 93.96, 119.32 69.29, 127.57 59.09 M79.94 115.52 C88.82 103.82, 102.47 90.46, 132.43 58.34" stroke="#ffffff" stroke-width="1" fill="none"></path><path d="M112.39 26.78 C118.35 33.69, 124.44 44.64, 125.6 53.62 C126.76 62.59, 123.17 72.58, 119.34 80.6 C115.52 88.63, 109.76 96.14, 102.63 101.76 C95.51 107.37, 86.08 112.15, 76.6 114.31 C67.12 116.47, 55.39 117.09, 45.76 114.72 C36.12 112.35, 25.89 106.06, 18.8 100.11 C11.71 94.17, 6 87.13, 3.23 79.05 C0.45 70.96, 0.41 60.96, 2.15 51.61 C3.9 42.27, 7.88 30.46, 13.68 22.99 C19.48 15.53, 28.41 10.88, 36.93 6.81 C45.46 2.75, 55.74 -1.54, 64.85 -1.41 C73.95 -1.27, 81.78 -3.68, 91.55 7.62 C101.33 18.93, 121.45 50.96, 123.5 66.41 C125.55 81.86, 104.56 100.54, 103.86 100.32" stroke="#000000" stroke-width="2.5" fill="none" stroke-dasharray="8 10"></path></g><g stroke-linecap="round"><g stroke-opacity="0.8" fill-opacity="0.8" transform="translate(332.1129397854762 133.45034598137323) rotate(0 35.78414729397867 47.056949661220095)" fill-rule="evenodd"><path d="M4.21 3.34 C4.16 12.53, 3.17 41.86, 2.82 58.26 C2.46 74.65, -7.38 95.52, 2.07 101.7 C11.52 107.87, 47.91 105.91, 59.5 95.32 C71.08 84.74, 70.97 54.99, 71.58 38.19 C72.18 21.4, 70.58 0.32, 63.12 -5.42 C55.66 -11.16, 37.36 2.2, 26.83 3.75 C16.29 5.31, 4.59 4.23, -0.08 3.89" stroke="none" stroke-width="0" fill="#a5d8ff" fill-rule="evenodd"></path><path d="M2.8 0.28 C3.29 8.47, 4.2 34.4, 3.7 51.42 C3.21 68.44, -10.03 94.66, -0.17 102.38 C9.7 110.1, 51.06 108.16, 62.89 97.74 C74.71 87.32, 71.41 56.75, 70.78 39.86 C70.14 22.96, 66.7 2.94, 59.08 -3.63 C51.46 -10.2, 34.97 -0.02, 25.04 0.44 C15.12 0.9, 3.95 -0.79, -0.48 -0.89" stroke="#000000" stroke-width="2.5" fill="none" stroke-dasharray="8 10"></path></g></g><mask></mask><g stroke-opacity="0.8" fill-opacity="0.8" transform="translate(342.3374132291247 81.06892577634065) rotate(0 0.00008276513422345033 0.00008276513421989762)" stroke="none"><path fill="#000000" d="M 1.57,-1.57 Q 1.57,-1.57 1.77,-1.27 1.98,-0.98 2.09,-0.64 2.20,-0.29 2.19,0.05 2.18,0.41 2.05,0.75 1.93,1.09 1.70,1.37 1.48,1.65 1.18,1.84 0.87,2.04 0.52,2.12 0.18,2.21 -0.17,2.18 -0.53,2.15 -0.86,2.01 -1.19,1.87 -1.46,1.63 -1.73,1.39 -1.90,1.07 -2.08,0.76 -2.15,0.41 -2.21,0.05 -2.17,-0.29 -2.12,-0.65 -1.96,-0.97 -1.80,-1.29 -1.54,-1.54 -1.29,-1.80 -0.97,-1.96 -0.65,-2.12 -0.29,-2.17 0.06,-2.21 0.41,-2.15 0.76,-2.08 1.07,-1.90 1.39,-1.73 1.63,-1.46 1.87,-1.19 2.01,-0.86 2.15,-0.53 2.18,-0.17 2.21,0.18 2.12,0.52 2.03,0.87 1.84,1.18 1.65,1.48 1.37,1.70 1.09,1.93 0.75,2.05 0.41,2.18 0.05,2.19 -0.30,2.20 -0.64,2.09 -0.98,1.98 -1.27,1.77 -1.57,1.56 -1.57,1.57 -1.57,1.57 -1.73,1.35 -1.90,1.14 -2.01,0.90 -2.12,0.66 -2.16,0.39 -2.21,0.13 -2.20,-0.13 -2.18,-0.40 -2.10,-0.65 -2.02,-0.91 -1.88,-1.14 -1.74,-1.36 -1.55,-1.55 -1.36,-1.74 -1.14,-1.88 -0.91,-2.02 -0.65,-2.10 -0.40,-2.18 -0.13,-2.20 0.13,-2.21 0.39,-2.16 0.66,-2.12 0.90,-2.01 1.14,-1.90 1.35,-1.73 1.57,-1.57 1.57,-1.57 L 1.57,-1.57 Z"></path></g><g stroke-opacity="0.8" fill-opacity="0.8" transform="translate(384.6945443246733 63.152436259420455) rotate(0 0 -1.1939144982581027)" stroke="none"><path d="M0.21 -1.14 C0.21 -1.14, 0.21 -1.14, 0.21 -1.14 M0.21 -1.14 C0.21 -1.14, 0.21 -1.14, 0.21 -1.14 M0 0 C0 0, 0 0, 0 0 M0 0 C0 0, 0 0, 0 0" stroke="#ffffff" stroke-width="0.5" fill="none"></path><path fill="#000000" d="M 2.12,-0.66 Q 2.12,-0.66 2.15,-0.13 2.18,0.40 1.96,0.88 1.74,1.36 1.32,1.69 0.91,2.02 0.38,2.12 -0.13,2.21 -0.64,2.05 -1.14,1.90 -1.52,1.52 -1.90,1.14 -2.05,0.64 -2.21,0.13 -2.12,-0.38 -2.02,-0.91 -1.69,-1.32 -1.36,-1.74 -0.88,-1.96 -0.39,-2.18 0.13,-2.15 0.66,-2.11 1.11,-1.84 1.57,-1.56 1.84,-1.11 L 2.12,-0.66 Z"></path></g><g stroke-linecap="round"><g stroke-opacity="0.8" fill-opacity="0.8" transform="translate(366.42731837834356 89.61609725061976) rotate(180.707313349537 10.95300279655119 -4.10737604870674)"><path d="M0.05 -0.01 C1.4 -1.41, 4.51 -7.73, 8.06 -7.96 C11.61 -8.19, 19.13 -2.43, 21.36 -1.38" stroke="#000000" stroke-width="1.5" fill="none" stroke-dasharray="8 9"></path></g></g><mask></mask><g stroke-linecap="round"><g stroke-opacity="0.8" fill-opacity="0.8" transform="translate(342.5796883854254 235.9783608856634) rotate(0 1.209842579416403 63.3142078359937)"><path d="M1.83 -3.96 C2.82 13.35, 0.14 32.66, -2.55 51.76 M2.58 57.06 C-5.95 76.5, -6.46 92.66, -17.72 114.63 M-14.41 116.38 C-1.58 119.55, 7.98 121.42, 18.86 124.64" stroke="#000000" stroke-width="2.5" fill="none" stroke-dasharray="8 10"></path></g></g><mask></mask><g stroke-linecap="round"><g stroke-opacity="0.8" fill-opacity="0.8" transform="translate(400.27072139005054 225.49337296335472) rotate(0 31.10931153451796 56.75682113850988)"><path d="M3.23 -3.32 C8.54 12.84, 13.5 24.3, 26.11 50.7 M24.79 51.73 C31.95 73.7, 29.6 94.28, 32.9 113.16 M36.53 113.44 C46.06 106.2, 53.74 99.07, 64.85 92.29" stroke="#000000" stroke-width="2.5" fill="none" stroke-dasharray="8 10"></path></g></g><mask></mask><g stroke-linecap="round"><g stroke-opacity="0.8" fill-opacity="0.8" transform="translate(379.6113215228467 137.01675374784094) rotate(0 65.62355957918334 31.160899611459374)"><path d="M0.94 -0.69 C9.47 11.09, 20.21 28.67, 51.28 66.17 M50.32 63.87 C67.18 57.94, 91.69 58.81, 106.99 60.02 M109.39 58.47 C114.58 55.09, 122.92 52.37, 130.67 54.02" stroke="#000000" stroke-width="2.5" fill="none" stroke-dasharray="8 10"></path></g></g><mask></mask><g stroke-linecap="round"><g stroke-opacity="0.8" fill-opacity="0.8" transform="translate(397.64912710526295 128.92213250620057) rotate(0 50.99556978793509 25.07223014404584)"><path d="M-1.27 -2.24 C9.31 13.06, 21.76 24.19, 46.13 44.93 M40.19 44.26 C61.69 47.24, 81.43 49.46, 89.48 53.78 M91.23 48.59 C95.44 45.5, 96.51 46.73, 102.73 41.02" stroke="#000000" stroke-width="2.5" fill="none" stroke-dasharray="8 10"></path></g></g><mask></mask><g stroke-linecap="round" transform="translate(460.22919022790603 181.26956597304803) rotate(0 40.91833994371905 9.763449084988764)"><path d="M34.62 0.44 C42.8 0.07, 54.5 0.15, 62.06 1.26 C69.62 2.38, 77.2 5.03, 80 7.11 C82.79 9.2, 82.08 11.98, 78.8 13.77 C75.53 15.56, 68.09 16.89, 60.36 17.84 C52.63 18.79, 41.04 19.76, 32.43 19.46 C23.83 19.17, 14.08 17.67, 8.72 16.06 C3.37 14.44, 0.02 11.88, 0.32 9.78 C0.62 7.68, 4.5 5.03, 10.53 3.46 C16.56 1.89, 31.75 0.84, 36.48 0.37 C41.2 -0.1, 38.72 0.6, 38.9 0.64 M41.61 -0.71 C49.99 -1.01, 61.18 0.22, 67.68 1.62 C74.18 3.01, 79.1 5.61, 80.6 7.69 C82.1 9.77, 80.89 12.24, 76.68 14.09 C72.48 15.94, 63.71 17.99, 55.36 18.79 C47 19.59, 34.98 19.59, 26.57 18.91 C18.16 18.24, 9.33 16.64, 4.9 14.74 C0.47 12.84, -1.72 9.71, -0.01 7.53 C1.71 5.34, 8.26 2.99, 15.17 1.63 C22.08 0.27, 37.2 -0.48, 41.47 -0.62 C45.73 -0.77, 40.88 0.45, 40.76 0.75" stroke="none" stroke-width="0" fill="#ffec99"></path><path d="M48.48 -0.05 C56.79 0.14, 67.2 2.16, 72.79 3.74 C78.38 5.32, 82.17 7.37, 82.03 9.42 C81.89 11.47, 77.62 14.37, 71.94 16.05 C66.25 17.74, 56.49 19.18, 47.91 19.53 C39.33 19.88, 27.95 19.22, 20.45 18.15 C12.95 17.07, 5.82 15.06, 2.9 13.08 C-0.02 11.1, -0.03 8.27, 2.94 6.27 C5.91 4.26, 12.93 2.11, 20.72 1.05 C28.51 0, 44.74 -0.03, 49.67 -0.06 C54.6 -0.1, 50.49 0.64, 50.31 0.87 M42.81 0.63 C51.26 0.67, 62.6 1.14, 69.13 2.53 C75.67 3.91, 81.03 6.83, 82.02 8.97 C83.01 11.1, 79.91 13.58, 75.08 15.35 C70.25 17.12, 61.31 19.08, 53.03 19.59 C44.75 20.1, 33.41 19.29, 25.39 18.38 C17.36 17.48, 8.96 15.83, 4.87 14.14 C0.78 12.45, -1.12 10.32, 0.84 8.23 C2.81 6.14, 9.73 2.95, 16.65 1.58 C23.56 0.21, 37.94 0.24, 42.36 0.01 C46.77 -0.22, 43.03 0.12, 43.13 0.21" stroke="#000000" stroke-width="1" fill="none"></path></g><g stroke-linecap="round"><g transform="translate(460.72701081041697 105.53689717300904) rotate(0 41.4070262036156 42.335301739353675)" fill-rule="evenodd"><path d="M-1.93 -1.92 L0.37 84.34 L83.68 86.65 L83.55 0.7 L0.55 -1.07" stroke="none" stroke-width="0" fill="#ffec99" fill-rule="evenodd"></path><path d="M0 0 C1.34 22.76, 1.41 40.88, -0.13 85.41 M0 0 C-0.37 33.27, 0.31 67.58, -0.13 85.41 M-0.13 85.41 C29.02 85.48, 56.31 84.95, 82.94 85.41 M-0.13 85.41 C27.57 84.72, 57.15 85.1, 82.94 85.41 M82.94 85.41 C81.47 56.55, 84.2 29.6, 82.62 -0.74 M82.94 85.41 C82.02 60.93, 82.29 36.35, 82.62 -0.74 M82.62 -0.74 C53.35 -0.57, 26.19 1.29, 0 0 M82.62 -0.74 C62.47 -0.56, 42.11 -0.98, 0 0 M0 0 C0 0, 0 0, 0 0 M0 0 C0 0, 0 0, 0 0" stroke="transparent" stroke-width="1" fill="none"></path></g></g><mask></mask><g stroke-linecap="round" transform="translate(460.5671601646569 95.290470779758) rotate(0 40.91833994371905 9.763449084988766)"><path d="M47.9 0.61 C56.18 0.92, 66.11 2.44, 71.73 3.86 C77.35 5.29, 81.56 7.14, 81.61 9.17 C81.67 11.21, 77.64 14.35, 72.08 16.08 C66.51 17.81, 56.69 19.14, 48.2 19.54 C39.72 19.95, 28.7 19.54, 21.17 18.5 C13.63 17.47, 6.17 15.29, 2.99 13.34 C-0.2 11.4, -0.81 8.77, 2.05 6.84 C4.91 4.92, 12.32 2.97, 20.14 1.79 C27.96 0.61, 44.08 -0.03, 48.97 -0.26 C53.85 -0.49, 49.58 0.13, 49.44 0.41 M30.69 -0.16 C38.68 -0.72, 51.52 -0.55, 59.58 0.43 C67.65 1.4, 75.67 3.68, 79.07 5.7 C82.47 7.71, 82.66 10.46, 79.99 12.52 C77.32 14.58, 70.44 16.96, 63.04 18.04 C55.65 19.11, 44.21 19.33, 35.65 18.97 C27.08 18.61, 17.53 17.41, 11.65 15.87 C5.78 14.33, 1.09 11.63, 0.42 9.74 C-0.24 7.85, 2.56 6.06, 7.65 4.52 C12.74 2.97, 27.01 1.25, 30.96 0.49 C34.92 -0.27, 31.05 -0.1, 31.36 -0.04" stroke="none" stroke-width="0" fill="#ffec99"></path><path d="M37.07 -0.31 C45.18 -0.67, 56.51 0.44, 63.71 1.7 C70.91 2.97, 77.85 5.27, 80.27 7.27 C82.7 9.27, 81.79 11.84, 78.26 13.72 C74.73 15.6, 66.94 17.66, 59.1 18.55 C51.26 19.45, 39.77 19.64, 31.24 19.08 C22.7 18.53, 13.01 16.93, 7.88 15.21 C2.75 13.49, -0.17 10.73, 0.45 8.75 C1.06 6.78, 4.95 4.77, 11.57 3.34 C18.2 1.91, 34.9 0.7, 40.19 0.15 C45.48 -0.4, 43.38 -0.1, 43.32 0.02 M49.76 0.61 C57.93 0.96, 67.51 2.34, 72.86 4 C78.22 5.66, 82.07 8.58, 81.9 10.56 C81.72 12.54, 77.62 14.43, 71.83 15.89 C66.04 17.36, 55.93 18.88, 47.15 19.35 C38.38 19.82, 26.64 19.87, 19.19 18.71 C11.74 17.55, 5.28 14.51, 2.46 12.42 C-0.35 10.32, -0.93 8.02, 2.29 6.14 C5.5 4.26, 13.88 2.22, 21.74 1.16 C29.61 0.1, 44.92 -0.19, 49.46 -0.24 C54.01 -0.3, 49.26 0.67, 49.01 0.84" stroke="#000000" stroke-width="1" fill="none"></path></g><g stroke-linecap="round"><g transform="translate(460.83890626244903 105.69446423811584) rotate(0 -0.17241033935605188 43.59812184086195)"><path d="M0 0 C2.45 35.5, 1.17 67.67, -0.34 87.2 M0 0 C0.21 21.36, -0.29 43.41, -0.34 87.2" stroke="#000000" stroke-width="1" fill="none"></path></g></g><mask></mask><g stroke-linecap="round"><g transform="translate(543.7922570895571 105.18522575233574) rotate(0 -0.3539550013269164 43.39602495300753)"><path d="M0 0 C1.42 21.17, -0.66 45.21, -0.71 86.79 M0 0 C-0.08 26.19, -0.18 51.44, -0.71 86.79" stroke="#000000" stroke-width="1" fill="none"></path></g></g><mask></mask><g stroke-opacity="0.8" fill-opacity="0.8" stroke-linecap="round" transform="translate(581.6363976053321 14.537970459663) rotate(0 62.07385066475558 58.62530340560225)"><path d="M3.25 35.95 C3.25 35.95, 3.25 35.95, 3.25 35.95 M3.25 35.95 C3.25 35.95, 3.25 35.95, 3.25 35.95 M5.03 48.93 C17.58 30.73, 31 21.9, 37.3 3.97 M4.7 48.97 C16.71 32.42, 27.8 16.45, 39.46 4.97 M5.97 59.57 C20.3 35.5, 41.18 18.16, 55.12 3.05 M1.67 61.4 C13.12 46.14, 25.7 35.19, 55.48 0.44 M5.17 71.54 C21.36 44.94, 45.32 24.7, 65.74 4.33 M3.76 69.65 C23.44 48.22, 48.84 22.39, 66.11 2.08 M7.01 80.64 C33.82 52.78, 49.28 30.07, 72.64 2.96 M8.05 81.93 C35.15 49.08, 60.24 18.51, 77.76 0.88 M11.8 86.26 C27.1 68.78, 42.92 48.26, 83.56 4.26 M11.37 91.17 C38.8 54.84, 67.97 21.85, 83.63 3.51 M13.65 99.17 C29.91 75.51, 48.69 58.85, 88.21 10.59 M15.38 94.62 C43.84 62.22, 68.85 35, 90.61 8.9 M24.48 100.73 C46.03 78.59, 67.88 49.72, 94.94 15.75 M19.73 98.9 C47.78 68.97, 73.4 41.36, 99.1 10.54 M27.76 102.2 C48.05 83.26, 62.38 59.14, 108.6 16.85 M27.03 107.14 C49.95 77.27, 76.84 47.01, 106.07 18.08 M34.42 110.91 C57.25 77.94, 82.6 51.12, 111.02 23.66 M35.9 110.89 C52.62 92.36, 69.23 68.1, 108.74 22.57 M46.05 109.09 C68.4 84.76, 91.21 51.51, 118.26 31.27 M43.42 112.8 C64.15 88.02, 87.98 59.44, 115.02 30.88 M50.2 113.31 C79.17 81.89, 103.87 54.16, 119.12 39.66 M49.55 115.92 C74.72 88.14, 99.18 63.55, 121.18 37.12 M56.12 119.52 C82.72 92.11, 101.16 68.81, 119.77 47.66 M60.1 116.49 C73.31 98.99, 91.7 82.12, 121.7 46.37 M68.01 120.24 C81.99 102.31, 93.12 89.85, 123.46 53.99 M73.14 114.93 C86.82 101.32, 101.27 83.33, 124.17 55.55 M81.65 114.92 C96.09 102.19, 102.37 94.75, 123.9 70.93 M82.88 114.12 C93.8 104.8, 102.34 94.93, 123.79 68.93 M104.58 101.36 C107.99 97.84, 112.67 93.45, 116.12 88.82 M104.82 100.79 C109.58 98.79, 111.9 93.82, 114.44 92.46" stroke="#ffffff" stroke-width="1" fill="none"></path><path d="M20.74 16.03 C27.07 9.56, 38 2.87, 47.26 0.32 C56.53 -2.22, 66.9 -1.71, 76.33 0.77 C85.77 3.24, 96.46 8.88, 103.88 15.17 C111.31 21.46, 117.61 29.74, 120.88 38.5 C124.15 47.27, 124.85 58.61, 123.51 67.74 C122.17 76.87, 118.12 85.8, 112.85 93.29 C107.58 100.77, 100.74 108.53, 91.89 112.63 C83.04 116.73, 69.85 118.5, 59.75 117.89 C49.65 117.29, 39.52 113.28, 31.32 109 C23.12 104.71, 15.48 99.71, 10.57 92.18 C5.66 84.65, 3.02 73.24, 1.85 63.82 C0.67 54.4, -0.35 44.62, 3.51 35.64 C7.37 26.67, 20.58 14.35, 25.01 9.99 C29.44 5.62, 29.24 8.75, 30.08 9.46" stroke="#000000" stroke-width="2.5" fill="none" stroke-dasharray="8 10"></path></g><g stroke-linecap="round"><g stroke-opacity="0.8" fill-opacity="0.8" transform="translate(619.0816446138635 131.78857727086884) rotate(0 35.78414729397866 47.056949661220095)" fill-rule="evenodd"><path d="M1.41 -3.14 C1.02 6.48, 1.69 36.08, 1.7 53.8 C1.71 71.52, -8.21 96.11, 1.45 103.19 C11.1 110.26, 48.57 107.39, 59.63 96.23 C70.69 85.08, 67.75 53.9, 67.8 36.25 C67.85 18.61, 66.43 -3.7, 59.93 -9.63 C53.44 -15.56, 39.32 -1.05, 28.81 0.67 C18.3 2.4, 2.08 0.15, -3.12 0.72" stroke="none" stroke-width="0" fill="#fcc2d7" fill-rule="evenodd"></path><path d="M-2.01 -1.01 C-1.29 8.26, 3.31 36.54, 4.02 53.27 C4.73 69.99, -7.22 92.19, 2.26 99.35 C11.73 106.51, 49.57 106.3, 60.87 96.23 C72.18 86.16, 69.9 55.82, 70.09 38.93 C70.27 22.05, 69.06 1.48, 61.99 -5.08 C54.92 -11.63, 37.62 -1.23, 27.65 -0.39 C17.68 0.46, 6.56 -0.41, 2.17 -0.01" stroke="#000000" stroke-width="2.5" fill="none" stroke-dasharray="8 10"></path></g></g><mask></mask><g stroke-opacity="0.8" fill-opacity="0.8" transform="translate(629.306118057512 79.40715706583626) rotate(0 0.0000827651342163449 0.0000827651342163449)" stroke="none"><path fill="#000000" d="M 1.57,-1.57 Q 1.57,-1.57 1.77,-1.27 1.98,-0.98 2.09,-0.64 2.20,-0.29 2.19,0.05 2.18,0.41 2.05,0.75 1.93,1.09 1.70,1.37 1.48,1.65 1.18,1.84 0.87,2.04 0.52,2.12 0.18,2.21 -0.17,2.18 -0.53,2.15 -0.86,2.01 -1.19,1.87 -1.46,1.63 -1.73,1.39 -1.90,1.07 -2.08,0.76 -2.15,0.41 -2.21,0.05 -2.17,-0.29 -2.12,-0.65 -1.96,-0.97 -1.80,-1.29 -1.54,-1.54 -1.29,-1.80 -0.97,-1.96 -0.65,-2.12 -0.29,-2.17 0.06,-2.21 0.41,-2.15 0.76,-2.08 1.07,-1.90 1.39,-1.73 1.63,-1.46 1.87,-1.19 2.01,-0.86 2.15,-0.53 2.18,-0.17 2.21,0.18 2.12,0.52 2.03,0.87 1.84,1.18 1.65,1.48 1.37,1.70 1.09,1.93 0.75,2.05 0.41,2.18 0.05,2.19 -0.30,2.20 -0.64,2.09 -0.98,1.98 -1.27,1.77 -1.57,1.56 -1.57,1.57 -1.57,1.57 -1.73,1.35 -1.90,1.14 -2.01,0.90 -2.12,0.66 -2.16,0.39 -2.21,0.13 -2.20,-0.13 -2.18,-0.40 -2.10,-0.65 -2.02,-0.91 -1.88,-1.14 -1.74,-1.36 -1.55,-1.55 -1.36,-1.74 -1.14,-1.88 -0.91,-2.02 -0.65,-2.10 -0.40,-2.18 -0.13,-2.20 0.13,-2.21 0.39,-2.16 0.66,-2.12 0.90,-2.01 1.14,-1.90 1.35,-1.73 1.57,-1.57 1.57,-1.57 L 1.57,-1.57 Z"></path></g><g stroke-opacity="0.8" fill-opacity="0.8" transform="translate(671.6632491530605 61.490667548916065) rotate(0 0 -1.1939144982581027)" stroke="none"><path d="M0.21 -1.14 C0.21 -1.14, 0.21 -1.14, 0.21 -1.14 M0.21 -1.14 C0.21 -1.14, 0.21 -1.14, 0.21 -1.14 M0 0 C0 0, 0 0, 0 0 M0 0 C0 0, 0 0, 0 0" stroke="#ffffff" stroke-width="0.5" fill="none"></path><path fill="#000000" d="M 2.12,-0.66 Q 2.12,-0.66 2.15,-0.13 2.18,0.40 1.96,0.88 1.74,1.36 1.32,1.69 0.91,2.02 0.38,2.12 -0.13,2.21 -0.64,2.05 -1.14,1.90 -1.52,1.52 -1.90,1.14 -2.05,0.64 -2.21,0.13 -2.12,-0.38 -2.02,-0.91 -1.69,-1.32 -1.36,-1.74 -0.88,-1.96 -0.39,-2.18 0.13,-2.15 0.66,-2.11 1.11,-1.84 1.57,-1.56 1.84,-1.11 L 2.12,-0.66 Z"></path></g><g stroke-linecap="round"><g stroke-opacity="0.8" fill-opacity="0.8" transform="translate(653.3960232067308 87.95432854011536) rotate(180.707313349537 10.95300279655119 -4.10737604870674)"><path d="M-0.35 -0.31 C0.9 -1.64, 4.21 -7.92, 7.92 -8.15 C11.64 -8.37, 19.59 -2.71, 21.93 -1.67" stroke="#000000" stroke-width="1.5" fill="none" stroke-dasharray="8 9"></path></g></g><mask></mask><g stroke-linecap="round"><g stroke-opacity="0.8" fill-opacity="0.8" transform="translate(629.5483932138127 234.316592175159) rotate(0 1.20984257941641 63.3142078359937)"><path d="M0.51 0.19 C0.26 13.18, -1.44 28.68, -1.28 55.9 M0.02 51.12 C-7.76 76.92, -8.87 103.46, -17.59 115.46 M-18.26 118.2 C-7.27 116.39, -0.57 119.15, 21 123.17" stroke="#000000" stroke-width="2.5" fill="none" stroke-dasharray="8 10"></path></g></g><mask></mask><g stroke-linecap="round"><g stroke-opacity="0.8" fill-opacity="0.8" transform="translate(687.2394262184378 223.8316042528503) rotate(0 31.109311534517957 56.75682113850988)"><path d="M1.17 0.4 C6.4 14.91, 13.14 25.53, 29.25 51.61 M23.77 47.65 C29.49 64.69, 26.78 74.16, 29.44 111.39 M33.71 110.66 C41.38 106.26, 51.97 100.12, 63.13 90.51" stroke="#000000" stroke-width="2.5" fill="none" stroke-dasharray="8 10"></path></g></g><mask></mask><g stroke-linecap="round"><g stroke-opacity="0.8" fill-opacity="0.8" transform="translate(666.580026351234 135.35498503733652) rotate(0 65.62355957918334 31.160899611459374)"><path d="M-0.24 3.1 C15.11 20.8, 32.77 41.63, 44.83 63.61 M49.75 65.23 C58.79 60.35, 71.19 59.02, 104.07 56.17 M106.48 57.41 C118 53.58, 123.63 50.14, 131.07 51.65" stroke="#000000" stroke-width="2.5" fill="none" stroke-dasharray="8 10"></path></g></g><mask></mask><g stroke-linecap="round"><g stroke-opacity="0.8" fill-opacity="0.8" transform="translate(684.6178319336502 127.26036379569618) rotate(0 50.995569787935096 25.07223014404584)"><path d="M-0.01 1.9 C16.18 17.48, 23.06 29.46, 40.19 43.91 M40.31 45.09 C53.44 44.77, 68.93 44.54, 91.3 50.96 M92.91 47.44 C93.4 44.87, 95.3 46.33, 100.9 38.34" stroke="#000000" stroke-width="2.5" fill="none" stroke-dasharray="8 10"></path></g></g><mask></mask><g stroke-linecap="round" transform="translate(747.1978950562933 179.60779726254364) rotate(0 40.91833994371905 9.763449084988764)"><path d="M41.31 -0.33 C49.7 -0.26, 61.23 1.44, 67.87 2.85 C74.51 4.26, 79.73 6.18, 81.15 8.13 C82.57 10.09, 80.96 12.82, 76.39 14.58 C71.82 16.33, 62.17 17.88, 53.73 18.67 C45.3 19.46, 33.91 19.95, 25.79 19.31 C17.68 18.66, 9.27 16.63, 5.03 14.8 C0.79 12.96, -1.43 10.44, 0.34 8.31 C2.12 6.18, 8.39 3.37, 15.67 2.02 C22.95 0.67, 39.01 0.41, 44.04 0.2 C49.07 0, 45.88 0.63, 45.85 0.77 M40.9 0.16 C49.2 -0.09, 60.75 0.42, 67.37 1.77 C73.99 3.11, 79.16 6.08, 80.65 8.23 C82.14 10.37, 80.49 12.78, 76.3 14.63 C72.11 16.48, 63.71 18.61, 55.52 19.33 C47.33 20.04, 35.52 19.8, 27.14 18.92 C18.75 18.03, 9.74 15.69, 5.21 13.99 C0.68 12.28, -1.74 10.59, -0.03 8.69 C1.68 6.78, 8.61 3.89, 15.47 2.55 C22.33 1.21, 36.81 1.07, 41.11 0.64 C45.41 0.21, 41.16 -0.09, 41.27 -0.04" stroke="none" stroke-width="0" fill="#ffec99"></path><path d="M50.01 -0.06 C58.3 0.28, 68.36 2.43, 73.72 4.1 C79.07 5.78, 82.67 8, 82.13 9.99 C81.59 11.98, 76.62 14.49, 70.5 16.03 C64.37 17.58, 54.14 18.9, 45.39 19.24 C36.64 19.58, 25.26 19.26, 18 18.08 C10.73 16.91, 4.25 14.28, 1.82 12.2 C-0.61 10.13, -0.1 7.55, 3.43 5.62 C6.97 3.69, 14.76 1.55, 23.03 0.61 C31.3 -0.34, 47.71 -0.12, 53.07 -0.06 C58.43 -0.01, 55.43 0.74, 55.18 0.93 M49.78 -0.12 C58.24 0.1, 68.42 2.08, 73.82 3.69 C79.22 5.3, 82.68 7.41, 82.18 9.55 C81.67 11.69, 76.67 14.98, 70.8 16.53 C64.93 18.09, 55.52 18.74, 46.96 18.89 C38.39 19.05, 27.01 18.42, 19.42 17.46 C11.83 16.51, 4.12 15.03, 1.4 13.16 C-1.32 11.28, -0.22 8.18, 3.11 6.19 C6.44 4.21, 13.48 2.36, 21.35 1.26 C29.22 0.15, 45.68 -0.35, 50.34 -0.43 C55 -0.51, 49.65 0.51, 49.31 0.77" stroke="#000000" stroke-width="1" fill="none"></path></g><g stroke-linecap="round"><g transform="translate(747.6957156388042 103.87512846250465) rotate(0 41.407026203615615 42.335301739353675)" fill-rule="evenodd"><path d="M-1.36 -1.29 L1.65 85.3 L84.26 83.67 L84.4 0.81 L-0.53 -0.14" stroke="none" stroke-width="0" fill="#ffec99" fill-rule="evenodd"></path><path d="M0 0 C-1.22 30.32, -0.91 58.04, -0.13 85.41 M0 0 C-0.44 24.77, -0.65 49.71, -0.13 85.41 M-0.13 85.41 C21.55 83.71, 42.74 84.05, 82.94 85.41 M-0.13 85.41 C31.57 85.18, 65.45 84.88, 82.94 85.41 M82.94 85.41 C83.24 64.71, 81.13 44.75, 82.62 -0.74 M82.94 85.41 C81.95 61.06, 83.12 35.47, 82.62 -0.74 M82.62 -0.74 C54.58 -0.97, 24.62 -2.34, 0 0 M82.62 -0.74 C56.04 -0.75, 29.27 -1.01, 0 0 M0 0 C0 0, 0 0, 0 0 M0 0 C0 0, 0 0, 0 0" stroke="transparent" stroke-width="1" fill="none"></path></g></g><mask></mask><g stroke-linecap="round" transform="translate(747.5358649930441 93.6287020692536) rotate(0 40.91833994371905 9.763449084988766)"><path d="M34.01 -0.01 C42.22 -0.57, 54.67 0.08, 62.2 1.11 C69.72 2.14, 76.35 4.09, 79.14 6.17 C81.92 8.26, 81.93 11.57, 78.91 13.64 C75.88 15.71, 68.65 17.57, 61 18.6 C53.34 19.62, 41.53 20.27, 32.98 19.81 C24.43 19.35, 15.21 17.49, 9.7 15.83 C4.2 14.17, 0.01 11.83, -0.03 9.84 C-0.08 7.86, 3.59 5.52, 9.44 3.91 C15.29 2.29, 30.67 0.72, 35.06 0.14 C39.45 -0.44, 35.67 0.29, 35.78 0.43 M42.54 0.14 C50.88 0.21, 62.27 1.12, 68.89 2.59 C75.52 4.06, 81.17 6.89, 82.28 8.97 C83.39 11.05, 80.49 13.5, 75.54 15.08 C70.6 16.67, 61.17 17.76, 52.61 18.48 C44.05 19.2, 32.09 20.06, 24.18 19.4 C16.28 18.73, 9.01 16.34, 5.17 14.47 C1.32 12.6, -0.78 10.31, 1.12 8.19 C3.01 6.06, 9.44 3.09, 16.56 1.72 C23.69 0.36, 39.45 0.14, 43.88 0 C48.31 -0.13, 43.31 0.84, 43.15 0.89" stroke="none" stroke-width="0" fill="#ffec99"></path><path d="M34.65 -0.21 C42.76 -0.76, 54.18 -0.15, 61.61 0.93 C69.05 2.02, 76.4 4.24, 79.26 6.31 C82.12 8.38, 81.81 11.44, 78.78 13.37 C75.74 15.31, 68.62 16.97, 61.07 17.92 C53.51 18.87, 41.98 19.49, 33.43 19.09 C24.87 18.69, 15.29 17.18, 9.74 15.52 C4.18 13.86, 0.1 11.16, 0.12 9.15 C0.14 7.15, 4.03 5.06, 9.86 3.5 C15.69 1.95, 30.62 0.43, 35.11 -0.19 C39.6 -0.81, 36.64 -0.44, 36.81 -0.22 M36.62 -0.55 C44.69 -0.85, 55.76 0.65, 63.12 1.81 C70.47 2.97, 78.11 4.55, 80.74 6.43 C83.36 8.31, 82.53 11.01, 78.86 13.1 C75.18 15.18, 66.59 17.88, 58.69 18.93 C50.78 19.98, 39.98 19.94, 31.44 19.4 C22.91 18.87, 12.59 17.53, 7.47 15.72 C2.35 13.91, 0.15 10.58, 0.74 8.53 C1.33 6.47, 5.19 4.82, 11.02 3.41 C16.85 1.99, 31.4 0.56, 35.74 0.05 C40.08 -0.46, 36.91 0.25, 37.08 0.34" stroke="#000000" stroke-width="1" fill="none"></path></g><g stroke-linecap="round"><g transform="translate(747.8076110908363 104.03269552761145) rotate(0 -0.17241033935604833 43.59812184086195)"><path d="M0 0 C-0.86 29.64, 0.6 56.57, -0.34 87.2 M0 0 C-1.28 22.21, -0.6 46.34, -0.34 87.2" stroke="#000000" stroke-width="1" fill="none"></path></g></g><mask></mask><g stroke-linecap="round"><g transform="translate(830.7609619179444 103.52345704183135) rotate(0 -0.35395500132690927 43.39602495300753)"><path d="M0 0 C1.24 19.01, -1.09 39.04, -0.71 86.79 M0 0 C-0.23 21.62, -1.44 43, -0.71 86.79" stroke="#000000" stroke-width="1" fill="none"></path></g></g><mask></mask><g stroke-opacity="0.8" fill-opacity="0.8" stroke-linecap="round" transform="translate(847.7283210990901 10.304204486428318) rotate(0 62.07385066475558 58.62530340560225)"><path d="M20.2 14.91 C20.2 14.91, 20.2 14.91, 20.2 14.91 M20.2 14.91 C20.2 14.91, 20.2 14.91, 20.2 14.91 M10.71 41.93 C19.05 26.7, 29.92 12.12, 38.07 3.06 M6.44 42.34 C15.45 30.47, 24.8 22.72, 40.37 4.95 M5.59 57.88 C20.18 41.18, 34.53 22.79, 50.15 5.49 M6.33 56.34 C21.97 37.94, 35.62 22.38, 49.52 7.49 M6.73 73.73 C24.67 53.89, 42.19 25.91, 58.98 1.81 M2.2 71.67 C22.7 45.28, 47.64 23.72, 61.49 5.08 M3.6 82.56 C19.15 66.58, 32.31 43.24, 70.67 2.9 M8.12 79.33 C35.69 50.54, 60.94 18.89, 74.29 1.9 M8.91 90.51 C32.52 65.63, 50.13 47.38, 84.62 3.47 M11.78 86.95 C29.51 67.91, 44.1 46.93, 82.28 3.9 M11.38 94.21 C33.55 75.37, 54.17 49.42, 89.01 5.07 M12.43 98.07 C34.05 70.37, 60.92 40.3, 90.9 9.54 M16.31 102.69 C41.51 75.22, 68.97 48.25, 98.33 11.35 M20.7 101.8 C41.83 75.19, 59.84 53.11, 95.31 10.91 M23.72 103.35 C53.78 74.37, 81.65 33.91, 105.17 17.61 M25.87 104.64 C44.55 83.61, 63.13 58.37, 103.42 15.09 M30.64 111.45 C58.46 80.69, 90.2 51.31, 110.78 18.48 M33.36 111.82 C57.93 80.93, 85.38 52.61, 107.65 21.64 M41.72 118.33 C54.63 91.24, 78.93 70.83, 110.88 27.25 M40.58 117.26 C68.24 84.08, 92.72 52.83, 113.86 29.68 M50.47 115.99 C78.12 89.04, 96.77 60.52, 120.92 33.51 M49.24 115.99 C77.88 85.63, 102.58 52.63, 119.89 33.47 M57.15 118 C81.03 94.26, 103.94 71.27, 125.98 43.04 M56.58 118.91 C82.16 87.4, 106.58 58.21, 120.57 41.99 M65.9 119.09 C81.16 97.55, 99.47 84.28, 123.91 56.15 M67.56 116.12 C79.28 104.38, 94.71 92.67, 124.05 55.17 M79.34 115.3 C95.65 100.61, 102.71 89.24, 126.53 64.83 M82.71 114.93 C97.05 100.13, 108.34 84.27, 128.29 60.81" stroke="#ffffff" stroke-width="1" fill="none"></path><path d="M19.89 15.26 C25.9 8.66, 35.18 5.43, 43.95 3 C52.72 0.56, 63.05 -1.07, 72.51 0.65 C81.98 2.37, 93.1 7.87, 100.73 13.31 C108.35 18.76, 114.23 25.26, 118.27 33.3 C122.31 41.34, 125.35 52.5, 124.96 61.54 C124.56 70.58, 120.73 79.85, 115.89 87.54 C111.05 95.23, 104.01 102.71, 95.91 107.7 C87.82 112.68, 77.48 116.54, 67.33 117.46 C57.18 118.39, 44.05 116.88, 35 113.23 C25.94 109.57, 18.61 102.8, 13 95.54 C7.4 88.29, 2.7 79.02, 1.34 69.68 C-0.02 60.34, -0.68 50.41, 4.86 39.52 C10.39 28.62, 26.33 10.76, 34.53 4.32 C42.72 -2.13, 53.96 -0.11, 54.03 0.85 M72 1.88 C81.15 2.72, 95.69 7.91, 104.04 13.47 C112.39 19.03, 118.84 27.29, 122.12 35.23 C125.4 43.17, 124.84 52.19, 123.73 61.13 C122.61 70.07, 120.5 81.28, 115.42 88.87 C110.35 96.46, 102.25 101.67, 93.28 106.67 C84.31 111.67, 71.14 117.61, 61.61 118.9 C52.07 120.18, 44.11 119.01, 36.07 114.39 C28.04 109.76, 19.73 99.33, 13.39 91.15 C7.05 82.97, -0.1 73.75, -1.96 65.32 C-3.81 56.88, -1.34 48.78, 2.26 40.54 C5.86 32.3, 12.6 22.2, 19.65 15.88 C26.69 9.56, 34.97 4.89, 44.53 2.63 C54.09 0.38, 72.03 2.54, 77.01 2.37 C81.99 2.2, 75.48 0.88, 74.42 1.6" stroke="#000000" stroke-width="2" fill="none"></path></g><g stroke-linecap="round"><g stroke-opacity="0.8" fill-opacity="0.8" transform="translate(885.1735681076215 127.55481129763416) rotate(0 35.78414729397866 47.056949661220095)" fill-rule="evenodd"><path d="M0.67 -3.04 C2.32 5.32, 7.01 36.61, 7.24 53.92 C7.46 71.22, -7.45 92.78, 2.04 100.81 C11.53 108.84, 53.11 112.3, 64.17 102.1 C75.23 91.9, 69.5 57.1, 68.39 39.59 C67.27 22.08, 64.7 4.36, 57.5 -2.97 C50.3 -10.31, 35.27 -5.03, 25.16 -4.39 C15.05 -3.75, 0.4 0.03, -3.16 0.88" stroke="none" stroke-width="0" fill="#ffd8a8" fill-rule="evenodd"></path><path d="M-2.19 -1.27 C-1.27 8.07, 4.35 39.31, 4.3 56.22 C4.26 73.13, -12.28 93.48, -2.46 100.18 C7.36 106.88, 50.95 106.64, 63.21 96.42 C75.46 86.19, 71.13 56.01, 71.07 38.84 C71.01 21.67, 70.46 -0.31, 62.84 -6.6 C55.21 -12.89, 35.99 -0.2, 25.32 1.09 C14.65 2.38, 3.41 0.87, -1.19 1.14 M1.82 4.21 C2.46 12.77, 1.73 35.85, 1.94 52.38 C2.14 68.91, -7.32 95.74, 3.04 103.39 C13.4 111.03, 53.38 108.86, 64.1 98.28 C74.81 87.7, 68.34 57.86, 67.33 39.91 C66.33 21.96, 65 -2.56, 58.07 -9.44 C51.13 -16.32, 36.11 -3.1, 25.73 -1.37 C15.34 0.36, -0.17 0.58, -4.25 0.96" stroke="#000000" stroke-width="2" fill="none"></path></g></g><mask></mask><g stroke-opacity="0.8" fill-opacity="0.8" transform="translate(895.3980415512699 75.17339109260158) rotate(0 0.00008276513420923948 0.0000827651342163449)" stroke="none"><path fill="#000000" d="M 1.57,-1.57 Q 1.57,-1.57 1.77,-1.27 1.98,-0.98 2.09,-0.64 2.20,-0.29 2.19,0.05 2.18,0.41 2.05,0.75 1.93,1.09 1.70,1.37 1.48,1.65 1.18,1.84 0.87,2.04 0.52,2.12 0.18,2.21 -0.17,2.18 -0.53,2.15 -0.86,2.01 -1.19,1.87 -1.46,1.63 -1.73,1.39 -1.90,1.07 -2.08,0.76 -2.15,0.41 -2.21,0.05 -2.17,-0.29 -2.12,-0.65 -1.96,-0.97 -1.80,-1.29 -1.54,-1.54 -1.29,-1.80 -0.97,-1.96 -0.65,-2.12 -0.29,-2.17 0.06,-2.21 0.41,-2.15 0.76,-2.08 1.07,-1.90 1.39,-1.73 1.63,-1.46 1.87,-1.19 2.01,-0.86 2.15,-0.53 2.18,-0.17 2.21,0.18 2.12,0.52 2.03,0.87 1.84,1.18 1.65,1.48 1.37,1.70 1.09,1.93 0.75,2.05 0.41,2.18 0.05,2.19 -0.30,2.20 -0.64,2.09 -0.98,1.98 -1.27,1.77 -1.57,1.56 -1.57,1.57 -1.57,1.57 -1.73,1.35 -1.90,1.14 -2.01,0.90 -2.12,0.66 -2.16,0.39 -2.21,0.13 -2.20,-0.13 -2.18,-0.40 -2.10,-0.65 -2.02,-0.91 -1.88,-1.14 -1.74,-1.36 -1.55,-1.55 -1.36,-1.74 -1.14,-1.88 -0.91,-2.02 -0.65,-2.10 -0.40,-2.18 -0.13,-2.20 0.13,-2.21 0.39,-2.16 0.66,-2.12 0.90,-2.01 1.14,-1.90 1.35,-1.73 1.57,-1.57 1.57,-1.57 L 1.57,-1.57 Z"></path></g><g stroke-opacity="0.8" fill-opacity="0.8" transform="translate(937.7551726468184 57.25690157568138) rotate(0 0 -1.1939144982581027)" stroke="none"><path d="M0.21 -1.14 C0.21 -1.14, 0.21 -1.14, 0.21 -1.14 M0.21 -1.14 C0.21 -1.14, 0.21 -1.14, 0.21 -1.14 M0 0 C0 0, 0 0, 0 0 M0 0 C0 0, 0 0, 0 0" stroke="#ffffff" stroke-width="0.5" fill="none"></path><path fill="#000000" d="M 2.12,-0.66 Q 2.12,-0.66 2.15,-0.13 2.18,0.40 1.96,0.88 1.74,1.36 1.32,1.69 0.91,2.02 0.38,2.12 -0.13,2.21 -0.64,2.05 -1.14,1.90 -1.52,1.52 -1.90,1.14 -2.05,0.64 -2.21,0.13 -2.12,-0.38 -2.02,-0.91 -1.69,-1.32 -1.36,-1.74 -0.88,-1.96 -0.39,-2.18 0.13,-2.15 0.66,-2.11 1.11,-1.84 1.57,-1.56 1.84,-1.11 L 2.12,-0.66 Z"></path></g><g stroke-linecap="round"><g stroke-opacity="0.8" fill-opacity="0.8" transform="translate(919.4879467004887 83.72056256688067) rotate(180.707313349537 10.953002796551175 -4.10737604870674)"><path d="M0.11 -0.27 C1.55 -1.63, 4.45 -7.88, 8.12 -8.16 C11.78 -8.45, 19.87 -3.06, 22.1 -1.96 M-0.49 0.78 C0.9 -0.49, 3.91 -7.07, 7.64 -7.44 C11.36 -7.81, 19.55 -2.24, 21.85 -1.44" stroke="#000000" stroke-width="1" fill="none"></path></g></g><mask></mask><g stroke-linecap="round"><g stroke-opacity="0.8" fill-opacity="0.8" transform="translate(895.6403167075706 230.08282620192432) rotate(0 1.209842579416403 63.3142078359937)"><path d="M0.38 1.4 C-1.94 14.37, 0.53 32.89, 0.36 50.8 M0.31 -1.39 C0.07 21.35, -0.73 43.18, -0.57 55.98 M1.4 51.98 C-7.88 65.12, -6.34 85.75, -14.19 113.56 M0.68 53.72 C-4.67 72.87, -8.32 93.95, -14.73 115.06 M-11.11 118.14 C-11.86 115.03, -5.42 119.42, 17.91 127.39 M-13.16 117.67 C-5.61 119.1, 1.67 122.19, 18.27 125.38" stroke="#000000" stroke-width="2" fill="none"></path></g></g><mask></mask><g stroke-linecap="round"><g stroke-opacity="0.8" fill-opacity="0.8" transform="translate(953.3313497121957 219.59783827961564) rotate(0 31.109311534517957 56.75682113850988)"><path d="M-1.01 -2.92 C9.41 11.64, 16.61 23.65, 30.22 45.46 M1.23 -0.06 C11.29 19.26, 21.26 39.4, 24.91 48.35 M22.55 44.99 C29.36 64.55, 30.51 70.92, 33.82 117.12 M26.23 46.4 C30.26 67.42, 31.79 86.57, 30.92 114.64 M29.3 109.83 C38.33 105.98, 51.98 101.89, 61.61 94.11 M33.01 113.02 C39.94 107.19, 51.81 100.2, 64.13 95.52" stroke="#000000" stroke-width="2" fill="none"></path></g></g><mask></mask><g stroke-linecap="round"><g stroke-opacity="0.8" fill-opacity="0.8" transform="translate(932.6719498449919 131.12121906410187) rotate(0 65.62355957918334 31.160899611459374)"><path d="M1.88 -1.69 C17.54 18.39, 35.99 40.06, 51.9 62.94 M0.93 0.37 C12.63 16.37, 21.63 29.23, 46.43 63.66 M49.23 65.78 C63.45 59.15, 78.05 65.4, 106.17 63.5 M49.01 61.59 C64.96 60.57, 79.29 62.74, 106.24 61.46 M102.22 58.34 C115.06 57.91, 122.23 53.88, 131.68 54.18 M104.08 59.42 C115.46 55.49, 124.99 54.8, 131.11 50.2" stroke="#000000" stroke-width="2" fill="none"></path></g></g><mask></mask><g stroke-linecap="round"><g stroke-opacity="0.8" fill-opacity="0.8" transform="translate(950.7097554274081 123.0265978224615) rotate(0 50.995569787935096 25.07223014404584)"><path d="M1.63 -3.2 C14.06 8.5, 23.46 22.09, 40.29 48.98 M0.7 1.98 C11.76 14.11, 24.01 28.79, 42.06 44.6 M43.72 43.19 C54.69 50.14, 64.78 51.27, 89.42 49.85 M43.18 44.69 C51.71 48.8, 64.7 50.36, 90.61 48.35 M90.49 50.74 C92.18 47.84, 95.49 48.67, 103.23 40.28 M90.77 49.17 C94.96 48.21, 96.66 44.15, 100.44 40.56" stroke="#000000" stroke-width="2" fill="none"></path></g></g><mask></mask><g stroke-linecap="round" transform="translate(1013.2898185500512 175.37403128930896) rotate(0 40.91833994371905 9.763449084988764)"><path d="M40.35 0.15 C48.77 0.05, 60.3 0.79, 67.11 2.07 C73.92 3.35, 79.65 5.71, 81.21 7.83 C82.78 9.95, 80.81 12.93, 76.49 14.79 C72.17 16.65, 63.44 18.24, 55.28 18.98 C47.12 19.72, 35.79 20, 27.52 19.23 C19.25 18.47, 10.15 16.26, 5.67 14.37 C1.19 12.49, -0.85 9.91, 0.62 7.91 C2.1 5.91, 7.38 3.59, 14.52 2.35 C21.65 1.1, 38.21 0.81, 43.42 0.45 C48.63 0.09, 45.88 0.16, 45.77 0.21 M37.39 -0.14 C45.78 -0.38, 58.08 0.29, 65.29 1.52 C72.5 2.76, 78.64 5.13, 80.64 7.27 C82.63 9.41, 81.04 12.35, 77.25 14.35 C73.47 16.35, 65.86 18.44, 57.93 19.27 C50 20.11, 38.02 20.15, 29.68 19.37 C21.34 18.59, 12.83 16.29, 7.9 14.6 C2.97 12.92, -0.65 11.2, 0.1 9.26 C0.86 7.32, 6.13 4.54, 12.44 2.95 C18.75 1.36, 33.72 0.22, 37.99 -0.27 C42.25 -0.76, 37.95 -0.3, 38.03 0.03" stroke="none" stroke-width="0" fill="#ffec99"></path><path d="M34.4 0.42 C42.48 0.02, 54.61 0.59, 62.18 1.66 C69.74 2.72, 76.88 4.93, 79.77 6.81 C82.67 8.69, 82.71 11.11, 79.53 12.95 C76.34 14.79, 68.39 16.81, 60.67 17.83 C52.95 18.85, 41.91 19.47, 33.22 19.08 C24.52 18.7, 14.01 17.02, 8.5 15.5 C2.98 13.98, -0.18 12.07, 0.11 9.97 C0.41 7.87, 4.21 4.48, 10.27 2.9 C16.33 1.32, 31.84 0.88, 36.47 0.51 C41.11 0.15, 38.03 0.63, 38.08 0.71 M33.43 -0.52 C41.36 -0.89, 52.6 0.42, 60.26 1.68 C67.92 2.94, 76.12 5.25, 79.37 7.03 C82.62 8.8, 82.8 10.59, 79.75 12.33 C76.7 14.08, 68.69 16.29, 61.06 17.49 C53.44 18.69, 42.52 19.77, 34.01 19.52 C25.49 19.27, 15.67 17.6, 10 16 C4.32 14.41, -0.05 11.97, -0.07 9.95 C-0.08 7.92, 4.34 5.52, 9.92 3.86 C15.51 2.2, 29.6 0.58, 33.43 -0.02 C37.25 -0.61, 32.7 0.18, 32.88 0.29" stroke="#000000" stroke-width="1" fill="none"></path></g><g stroke-linecap="round"><g transform="translate(1013.7876391325622 99.64136248926997) rotate(0 41.40702620361557 42.335301739353675)" fill-rule="evenodd"><path d="M0.4 -0.31 L0.83 84.7 L81.26 85.9 L81.32 1.04 L-0.19 1.5" stroke="none" stroke-width="0" fill="#ffec99" fill-rule="evenodd"></path><path d="M0 0 C2.53 19.1, -0.62 38.81, -0.13 85.41 M0 0 C0.71 26.34, -0.41 50.93, -0.13 85.41 M-0.13 85.41 C14.6 84.38, 33.56 87.56, 82.94 85.41 M-0.13 85.41 C27.05 85.3, 53.4 85.08, 82.94 85.41 M82.94 85.41 C82.76 60.31, 81.57 33, 82.62 -0.74 M82.94 85.41 C82.97 53.81, 81.62 23.1, 82.62 -0.74 M82.62 -0.74 C60.12 -0.57, 38.44 1.49, 0 0 M82.62 -0.74 C53.7 -0.78, 27.02 -1.07, 0 0 M0 0 C0 0, 0 0, 0 0 M0 0 C0 0, 0 0, 0 0" stroke="transparent" stroke-width="1" fill="none"></path></g></g><mask></mask><g stroke-linecap="round" transform="translate(1013.627788486802 89.39493609601892) rotate(0 40.91833994371905 9.763449084988764)"><path d="M44.05 -0.04 C52.28 0.04, 63.02 1.57, 69.23 3.06 C75.44 4.54, 80.42 6.8, 81.33 8.88 C82.23 10.95, 79.59 13.85, 74.68 15.49 C69.78 17.13, 60.28 18.26, 51.88 18.74 C43.48 19.21, 32.16 19.14, 24.26 18.34 C16.37 17.55, 8.3 15.72, 4.52 13.96 C0.75 12.21, -0.45 9.84, 1.62 7.81 C3.7 5.78, 9.74 3.12, 16.97 1.79 C24.2 0.45, 40.16 0.08, 45 -0.18 C49.84 -0.45, 46.12 0.03, 46.01 0.2 M38.71 -0.03 C46.79 -0.15, 57.79 0.96, 64.8 2.32 C71.81 3.69, 78.72 6.15, 80.77 8.15 C82.83 10.16, 80.97 12.71, 77.13 14.35 C73.3 16, 65.78 17.17, 57.76 18.04 C49.75 18.9, 37.52 20, 29.04 19.54 C20.57 19.08, 11.66 17.14, 6.91 15.27 C2.17 13.4, -0.46 10.45, 0.58 8.32 C1.62 6.18, 6.75 3.72, 13.16 2.45 C19.57 1.19, 34.91 1.1, 39.06 0.74 C43.21 0.39, 38.06 0.19, 38.07 0.32" stroke="none" stroke-width="0" fill="#ffec99"></path><path d="M47.29 0.29 C55.68 0.37, 66.44 1.51, 72.21 2.97 C77.99 4.43, 81.79 6.95, 81.94 9.07 C82.1 11.18, 78.73 13.98, 73.13 15.63 C67.53 17.28, 57.01 18.46, 48.37 18.98 C39.73 19.5, 28.88 19.77, 21.29 18.75 C13.7 17.73, 6.01 14.82, 2.84 12.87 C-0.32 10.93, -0.52 8.89, 2.31 7.06 C5.13 5.23, 12.14 3.06, 19.78 1.9 C27.42 0.74, 43.31 0.35, 48.12 0.12 C52.94 -0.11, 48.79 0.37, 48.65 0.54 M31.84 0.95 C40 0.2, 52.04 -0.33, 59.71 0.39 C67.38 1.11, 74.53 3.21, 77.88 5.27 C81.24 7.32, 82.24 10.64, 79.82 12.73 C77.4 14.83, 70.69 16.7, 63.37 17.83 C56.04 18.97, 44.51 19.72, 35.89 19.54 C27.26 19.35, 17.6 18.3, 11.64 16.72 C5.67 15.15, 0.78 12.25, 0.1 10.1 C-0.58 7.95, 2.24 5.55, 7.57 3.83 C12.9 2.11, 27.9 0.28, 32.07 -0.22 C36.24 -0.72, 32.51 0.63, 32.59 0.83" stroke="#000000" stroke-width="1" fill="none"></path></g><g stroke-linecap="round"><g transform="translate(1013.8995345845942 99.79892955437677) rotate(0 -0.17241033935604833 43.59812184086195)"><path d="M0 0 C-0.78 28.44, -0.46 55.71, -0.34 87.2 M0 0 C-1.77 35.44, -1.42 68.59, -0.34 87.2" stroke="#000000" stroke-width="1" fill="none"></path></g></g><mask></mask><g stroke-linecap="round"><g transform="translate(1096.8528854117023 99.28969106859667) rotate(0 -0.3539550013269377 43.39602495300753)"><path d="M0 0 C0.08 32.09, 1.44 61.32, -0.71 86.79 M0 0 C-1.6 27.1, -2.05 56.32, -0.71 86.79" stroke="#000000" stroke-width="1" fill="none"></path></g></g><mask></mask></svg>