<svg version="1.1" xmlns="http://www.w3.org/2000/svg" viewBox="0 0 1183.7399087918352 454.7582374457994" width="1183.7399087918352" height="454.7582374457994" class="excalidraw-svg">
  <!-- svg-source:excalidraw -->
  
  <defs>
    <style class="style-fonts">
      
    </style>
    
  </defs>
  <rect x="0" y="0" width="1183.7399087918352" height="454.7582374457994" fill="#ffffff"></rect><g stroke-linecap="round" transform="translate(10 10) rotate(0 171.126953125 216.28622436523438)"><path d="M0.45 0.08 L343.87 -0.53 L343.1 431.44 L-0.16 433.35" stroke="none" stroke-width="0" fill="#ffec99"></path><path d="M0 0 C100.31 -2.63, 198.15 -1.06, 342.25 0 M0 0 C109.85 1.84, 219.13 1.95, 342.25 0 M342.25 0 C341.35 87.35, 341.96 175.05, 342.25 432.57 M342.25 0 C341.47 116.61, 341.97 232.79, 342.25 432.57 M342.25 432.57 C231.87 431.03, 122.02 430.68, 0 432.57 M342.25 432.57 C252.41 431.02, 161.01 430.94, 0 432.57 M0 432.57 C-2.26 296.78, -2.23 163.01, 0 0 M0 432.57 C-1.02 273.46, -0.82 115.43, 0 0" stroke="#1e1e1e" stroke-width="2" fill="none"></path></g><g stroke-linecap="round" transform="translate(693.4144287109375 10.085714828804157) rotate(0 171.126953125 216.28622436523438)"><path d="M0.14 1.42 L343.43 0.82 L341.26 430.9 L-1.42 430.9" stroke="none" stroke-width="0" fill="#a5d8ff"></path><path d="M0 0 C117.92 0.27, 237.62 1.5, 342.25 0 M0 0 C135.65 1.45, 270.32 1.48, 342.25 0 M342.25 0 C340.32 130.73, 341.36 262.37, 342.25 432.57 M342.25 0 C340.54 168.82, 340.86 337.72, 342.25 432.57 M342.25 432.57 C225.29 430.35, 109.91 430.19, 0 432.57 M342.25 432.57 C233.24 432.85, 124.32 432.68, 0 432.57 M0 432.57 C-2.12 324.56, -1.82 215.59, 0 0 M0 432.57 C-1.68 319.42, -1.18 206.04, 0 0" stroke="#1e1e1e" stroke-width="2" fill="none"></path></g><g stroke-linecap="round" transform="translate(352.5042724609375 198.05849314911663) rotate(0 169.50946044921875 122.67703247070314)"><path d="M0 0 C106.53 1.95, 216.02 1.93, 339.02 0 M0 0 C113.98 -1.17, 227.36 -1.21, 339.02 0 M339.02 0 C340.56 75.48, 339.96 151.1, 339.02 245.35 M339.02 0 C339.26 71.31, 338.44 142.89, 339.02 245.35 M339.02 245.35 C240.31 243.87, 140.86 243.19, 0 245.35 M339.02 245.35 C253.8 247.16, 167.94 247.22, 0 245.35 M0 245.35 C0.58 170.75, -1.04 95.87, 0 0 M0 245.35 C-2.73 169.88, -1.58 93.65, 0 0" stroke="#1e1e1e" stroke-width="2" fill="none"></path></g><g stroke-opacity="0.8" fill-opacity="0.8" stroke-linecap="round" transform="translate(203.16553161963844 -29.198892315155092) rotate(90.07868101224747 45.22222222222217 94.77777777777771)"><path d="M-1.4 -1.44 L89.46 0.7 L89.6 190.73 L1.94 190.25" stroke="none" stroke-width="0" fill="#ffffff"></path><path d="M0 0 C27.02 -0.38, 56.43 -0.24, 90.44 0 M0 0 C29.09 -0.01, 57.3 0.86, 90.44 0 M90.44 0 C92.33 57.36, 90 115.73, 90.44 189.56 M90.44 0 C87.97 53.6, 87.95 108.27, 90.44 189.56 M90.44 189.56 C60.8 189.44, 33.03 186.81, 0 189.56 M90.44 189.56 C55.56 190.39, 20.09 189.92, 0 189.56 M0 189.56 C1.83 150.24, 2.18 114.07, 0 0 M0 189.56 C1.56 134.64, 0.29 81.29, 0 0" stroke="#495057" stroke-width="2" fill="none"></path></g><g stroke-linecap="round"><g stroke-opacity="0.8" fill-opacity="0.8" transform="translate(238.81249545957172 66.21783003190524) rotate(90.07868101224747 45.372377657910874 -0.3359423270036359)"><path d="M-0.33 1 C14.79 0.96, 75.41 -0.12, 90.5 -0.45 M1.7 0.48 C16.66 0.08, 74.85 -2.4, 89.42 -2.46" stroke="#495057" stroke-width="1" fill="none"></path></g></g><mask></mask><g stroke-linecap="round"><g stroke-opacity="0.8" fill-opacity="0.8" transform="translate(262.6381471092798 18.24152036126813) rotate(90.07868101224747 9.620026742108166 11.215034969958197)"><path d="M-0.25 0.22 C2.92 3.73, 15.37 18.44, 18.68 22.08 M1.82 -0.71 C4.81 3.5, 14.56 19.44, 17.43 23.44" stroke="#495057" stroke-width="1" fill="none"></path></g></g><mask></mask><g stroke-linecap="round"><g stroke-opacity="0.8" fill-opacity="0.8" transform="translate(235.84732484767602 86.14578728206033) rotate(90.07868101224747 35.999933329838996 -10.633486113231697)"><path d="M-0.56 -0.35 C11.54 -3.98, 60.33 -18.23, 72.37 -21.6 M1.34 -1.58 C13.34 -5.06, 60.05 -16.75, 71.62 -20.24" stroke="#495057" stroke-width="1" fill="none"></path></g></g><mask></mask><g stroke-opacity="0.8" fill-opacity="0.8" stroke-linecap="round" transform="translate(279.1901649711752 48.75987577027837) rotate(90.07868101224747 34.015873015872785 18.353174603174637)"><path d="M9.18 0 C25.96 -1.91, 37.29 -0.67, 58.86 0 C63.43 1.83, 65.65 1.62, 68.03 9.18 C65.85 14.61, 69.37 23.92, 68.03 27.53 C65.27 31.4, 66.33 34.06, 58.86 36.71 C37.25 35.94, 20.39 36.85, 9.18 36.71 C2.35 35.66, -0.31 32.91, 0 27.53 C-0.77 26.74, -3.11 18.81, 0 9.18 C1.4 2.39, 4.64 0.05, 9.18 0" stroke="none" stroke-width="0" fill="#ffffff"></path><path d="M9.18 0 C21.2 -0.66, 35.52 -0.02, 58.86 0 M9.18 0 C25.7 -0.89, 42.72 -0.44, 58.86 0 M58.86 0 C63.36 -1.98, 66.13 2.79, 68.03 9.18 M58.86 0 C62.75 1.84, 68.4 1.39, 68.03 9.18 M68.03 9.18 C67.69 11.22, 69.62 18.29, 68.03 27.53 M68.03 9.18 C68.67 15.67, 67.25 22.31, 68.03 27.53 M68.03 27.53 C68.78 34.98, 64.24 38.39, 58.86 36.71 M68.03 27.53 C69.97 33.3, 63.56 37.22, 58.86 36.71 M58.86 36.71 C41.38 34.87, 23.6 35.29, 9.18 36.71 M58.86 36.71 C43.17 37.35, 24.65 37.31, 9.18 36.71 M9.18 36.71 C2.63 34.92, -0.9 35.53, 0 27.53 M9.18 36.71 C3.16 34.9, 0.93 34.02, 0 27.53 M0 27.53 C1.48 23.17, -0.46 18.5, 0 9.18 M0 27.53 C-0.38 23.79, 0.57 20.47, 0 9.18 M0 9.18 C-1.85 3.55, 4.26 -0.27, 9.18 0 M0 9.18 C-0.65 1.37, 4.63 2.29, 9.18 0" stroke="#495057" stroke-width="1" fill="none"></path></g><g stroke-opacity="0.8" fill-opacity="0.8" stroke-linecap="round" transform="translate(932.8828812127522 20.897323037354568) rotate(0 45.22222222222217 94.77777777777771)"><path d="M-0.08 -0.41 L89.71 0.92 L91.16 188.32 L0.17 189.36" stroke="none" stroke-width="0" fill="#ffffff"></path><path d="M0 0 C32.28 1.41, 70.17 1.96, 90.44 0 M0 0 C25.65 -0.64, 51.23 0.77, 90.44 0 M90.44 0 C91.38 58.81, 87.76 116.28, 90.44 189.56 M90.44 0 C91.49 47.31, 91.57 94.31, 90.44 189.56 M90.44 189.56 C68.21 189.39, 50.67 192.02, 0 189.56 M90.44 189.56 C59.48 190.12, 27.87 189.49, 0 189.56 M0 189.56 C-2.64 145.9, -2.26 106.26, 0 0 M0 189.56 C1.8 141.07, 0.05 90.75, 0 0" stroke="#495057" stroke-width="2" fill="none"></path></g><g stroke-linecap="round"><g stroke-opacity="0.8" fill-opacity="0.8" transform="translate(932.8828812127522 80.89732303735457) rotate(0 45.372377657910874 -0.3359423270036359)"><path d="M0.47 1.03 C15.87 1.08, 76.38 -0.63, 91.54 -0.87 M-0.74 0.53 C14.64 0.87, 75.72 0.48, 91.01 0.57" stroke="#495057" stroke-width="1" fill="none"></path></g></g><mask></mask><g stroke-linecap="round"><g stroke-opacity="0.8" fill-opacity="0.8" transform="translate(932.8828812127522 80.89732303735457) rotate(0 9.620026742108166 11.215034969958197)"><path d="M0.8 -0.2 C4.04 3.42, 16.85 19.02, 19.92 22.71 M-0.24 -1.35 C2.86 2.4, 16.21 16.68, 19.33 20.73" stroke="#495057" stroke-width="1" fill="none"></path></g></g><mask></mask><g stroke-linecap="round"><g stroke-opacity="0.8" fill-opacity="0.8" transform="translate(951.7610346270026 103.270433709234) rotate(0 35.999933329838996 -10.633486113231697)"><path d="M0.68 0.28 C12.55 -3.32, 60.13 -18.39, 72 -21.79 M-0.42 -0.62 C11.22 -4.05, 59.13 -16.99, 71.05 -20.52" stroke="#495057" stroke-width="1" fill="none"></path></g></g><mask></mask><g stroke-opacity="0.8" fill-opacity="0.8" stroke-linecap="round" transform="translate(945.534382674361 32.50159640364086) rotate(0 34.015873015872785 18.353174603174637)"><path d="M9.18 0 C19.42 -1.05, 33.6 -2.36, 58.86 0 C62.62 -3.05, 67.83 2.98, 68.03 9.18 C70.81 18.17, 67.22 20.94, 68.03 27.53 C69.48 34.13, 67.47 38.04, 58.86 36.71 C45.97 38.83, 32.66 40.15, 9.18 36.71 C5.8 36.13, 2.97 30.38, 0 27.53 C-1.83 20.04, 3.36 21.32, 0 9.18 C-3.18 2.19, 5.03 1.62, 9.18 0" stroke="none" stroke-width="0" fill="#ffffff"></path><path d="M9.18 0 C26.04 -0.13, 46.59 0.06, 58.86 0 M9.18 0 C22.66 -1.38, 35.47 -0.95, 58.86 0 M58.86 0 C66.93 1.95, 66.41 3.5, 68.03 9.18 M58.86 0 C63.28 0.33, 66.36 3.71, 68.03 9.18 M68.03 9.18 C69.15 17.93, 68.76 22.93, 68.03 27.53 M68.03 9.18 C68.48 14.9, 67.4 21.86, 68.03 27.53 M68.03 27.53 C68.32 32.36, 63.1 35.8, 58.86 36.71 M68.03 27.53 C68.34 32.68, 63.81 37.84, 58.86 36.71 M58.86 36.71 C37.81 36.18, 20.24 35.52, 9.18 36.71 M58.86 36.71 C41.74 36.3, 24.55 37.12, 9.18 36.71 M9.18 36.71 C4.25 37.25, 0.81 31.9, 0 27.53 M9.18 36.71 C4.24 37.43, -0.59 33.07, 0 27.53 M0 27.53 C-0.93 21.1, -1.17 13.62, 0 9.18 M0 27.53 C0.04 22.92, 0.57 18.53, 0 9.18 M0 9.18 C-0.93 4.54, 1.47 0.49, 9.18 0 M0 9.18 C0.12 0.86, 3.53 -1.64, 9.18 0" stroke="#495057" stroke-width="1" fill="none"></path></g><g stroke-opacity="0.8" fill-opacity="0.8" stroke-linecap="round" transform="translate(355.37054443359375 201.18047190888228) rotate(0 90 40)"><path d="M0 0 C62.76 1.52, 128.07 -0.84, 180 0 M0 0 C38.83 0.41, 77.54 -0.74, 180 0 M180 0 C181.49 24.92, 181.21 47.2, 180 80 M180 0 C180.59 27.37, 180.77 55.05, 180 80 M180 80 C120.79 77.53, 57.04 79.44, 0 80 M180 80 C114.16 79.24, 48.62 77.75, 0 80 M0 80 C-0.44 54.89, -1.32 25.01, 0 0 M0 80 C0.4 56.87, 0.31 32.28, 0 0" stroke="#495057" stroke-width="2" fill="none"></path></g><g stroke-opacity="0.8" fill-opacity="0.8" stroke-linecap="round" transform="translate(366.30370378588213 210.42224475428839) rotate(354.2041136177088 80.69444444444446 31.1111111111112)"><path d="M15.56 0 C55.93 -1.81, 93.24 -1.95, 145.83 0 M15.56 0 C53.52 -1.21, 90.67 0.1, 145.83 0 M145.83 0 C157.7 1.2, 162.57 6.11, 161.39 15.56 M145.83 0 C155.88 1.04, 160.85 6.42, 161.39 15.56 M161.39 15.56 C160.9 28.03, 162.83 37.89, 161.39 46.67 M161.39 15.56 C161.41 27.57, 161.21 37.44, 161.39 46.67 M161.39 46.67 C162.03 58.37, 158.07 60.59, 145.83 62.22 M161.39 46.67 C162.21 58.37, 156.34 62.25, 145.83 62.22 M145.83 62.22 C95.3 61.76, 44.98 62.48, 15.56 62.22 M145.83 62.22 C100.65 61.4, 56.7 61.74, 15.56 62.22 M15.56 62.22 C6.53 63.46, -0.99 58.96, 0 46.67 M15.56 62.22 C5.48 60.31, -0.87 57.52, 0 46.67 M0 46.67 C0.83 37.13, 0.22 24.52, 0 15.56 M0 46.67 C0.71 34.91, 0.99 22.43, 0 15.56 M0 15.56 C-0.55 3.5, 3.73 -1.18, 15.56 0 M0 15.56 C0.66 4.3, 7.13 -1.88, 15.56 0" stroke="#495057" stroke-width="1" fill="none"></path></g><g stroke-opacity="0.8" fill-opacity="0.8" stroke-linecap="round" transform="translate(378.52592600810453 244.86668919873296) rotate(0 2.638888888888914 2.6388888888888005)"><path d="M5.28 2.64 C5.28 2.79, 5.26 2.95, 5.24 3.1 C5.21 3.25, 5.17 3.4, 5.12 3.54 C5.07 3.68, 5 3.83, 4.92 3.96 C4.85 4.09, 4.76 4.22, 4.66 4.34 C4.56 4.45, 4.45 4.56, 4.34 4.66 C4.22 4.76, 4.09 4.85, 3.96 4.92 C3.83 5, 3.68 5.07, 3.54 5.12 C3.4 5.17, 3.25 5.21, 3.1 5.24 C2.95 5.26, 2.79 5.28, 2.64 5.28 C2.49 5.28, 2.33 5.26, 2.18 5.24 C2.03 5.21, 1.88 5.17, 1.74 5.12 C1.59 5.07, 1.45 5, 1.32 4.92 C1.19 4.85, 1.06 4.76, 0.94 4.66 C0.83 4.56, 0.72 4.45, 0.62 4.34 C0.52 4.22, 0.43 4.09, 0.35 3.96 C0.28 3.83, 0.21 3.68, 0.16 3.54 C0.11 3.4, 0.07 3.25, 0.04 3.1 C0.01 2.95, 0 2.79, 0 2.64 C0 2.49, 0.01 2.33, 0.04 2.18 C0.07 2.03, 0.11 1.88, 0.16 1.74 C0.21 1.59, 0.28 1.45, 0.35 1.32 C0.43 1.19, 0.52 1.06, 0.62 0.94 C0.72 0.83, 0.83 0.72, 0.94 0.62 C1.06 0.52, 1.19 0.43, 1.32 0.35 C1.45 0.28, 1.59 0.21, 1.74 0.16 C1.88 0.11, 2.03 0.07, 2.18 0.04 C2.33 0.01, 2.49 0, 2.64 0 C2.79 0, 2.95 0.01, 3.1 0.04 C3.25 0.07, 3.4 0.11, 3.54 0.16 C3.68 0.21, 3.83 0.28, 3.96 0.35 C4.09 0.43, 4.22 0.52, 4.34 0.62 C4.45 0.72, 4.56 0.83, 4.66 0.94 C4.76 1.06, 4.85 1.19, 4.92 1.32 C5 1.45, 5.07 1.59, 5.12 1.74 C5.17 1.88, 5.21 2.03, 5.24 2.18 C5.26 2.33, 5.27 2.56, 5.28 2.64 C5.28 2.72, 5.28 2.56, 5.28 2.64" stroke="#495057" stroke-width="1" fill="none"></path></g><g stroke-linecap="round"><g stroke-opacity="0.8" fill-opacity="0.8" transform="translate(625.1891991786548 203.68002358456022) rotate(0 29 35.166666666666515)"><path d="M0.18 0.18 C-0.06 3.75, -2.65 17.12, -1.18 21.87 C0.29 26.61, 7.59 24.73, 9 28.66 C10.42 32.59, 6.73 39.8, 7.3 45.43 C7.88 51.07, 9.19 58.32, 12.44 62.49 C15.7 66.65, 21.47 69.88, 26.82 70.42 C32.18 70.95, 40.63 69.83, 44.59 65.68 C48.54 61.53, 49.92 51.91, 50.55 45.51 C51.18 39.11, 47.04 31.45, 48.35 27.26 C49.67 23.06, 56.67 24.88, 58.43 20.34 C60.19 15.81, 58.65 3.36, 58.91 0.05 M-1.19 -0.77 C-1.63 2.4, -3.95 14.94, -2.31 20.02 C-0.67 25.1, 7.11 25.31, 8.68 29.71 C10.25 34.11, 6.68 41.4, 7.1 46.42 C7.52 51.43, 7.69 55.99, 11.21 59.82 C14.73 63.65, 22.6 68.56, 28.23 69.42 C33.86 70.27, 41.38 68.99, 45.01 64.95 C48.64 60.91, 49.62 51.13, 49.99 45.17 C50.35 39.22, 45.66 33.49, 47.21 29.23 C48.77 24.97, 57.33 24.37, 59.34 19.63 C61.35 14.9, 59.3 4.07, 59.27 0.8" stroke="#1e1e1e" stroke-width="1" fill="none"></path></g></g><mask></mask><g stroke-linecap="round"><g stroke-opacity="0.8" fill-opacity="0.8" transform="translate(641.4159702342055 235.30961861043772) rotate(0 11.862013878691357 15.930299992573035)"><path d="M-0.35 0.53 C-0.83 2, -2.3 5.64, -2.71 8.97 C-3.12 12.3, -4.27 16.75, -2.8 20.5 C-1.33 24.26, 2.91 29.6, 6.09 31.5 C9.27 33.41, 12.83 33.54, 16.29 31.94 C19.75 30.34, 25.2 27.15, 26.86 21.92 C28.52 16.69, 26.3 4.22, 26.22 0.56 M1.67 -0.23 C1.09 1.38, -2.88 6.58, -3.22 10.24 C-3.56 13.9, -1.99 18.48, -0.36 21.7 C1.27 24.92, 4.05 27.77, 6.57 29.55 C9.1 31.33, 11.23 33.72, 14.81 32.38 C18.39 31.03, 26.58 27.02, 28.05 21.5 C29.53 15.97, 24.03 2.91, 23.67 -0.78" stroke="#1e1e1e" stroke-width="1" fill="none"></path></g></g><mask></mask><g stroke-linecap="round"><g stroke-opacity="0.8" fill-opacity="0.8" transform="translate(626.0225325119881 204.34669025122673) rotate(0 28.58333333333337 0)"><path d="M0.84 -0.51 C10.28 -0.63, 46.84 -0.51, 56.3 -0.23 M-0.18 -1.82 C9.67 -1.81, 49.02 0.98, 58.56 1.18" stroke="#1e1e1e" stroke-width="2" fill="none"></path></g></g><mask></mask><g stroke-opacity="0.8" fill-opacity="0.8" stroke-linecap="round" transform="translate(496.09967041015625 383.4383796505547) rotate(180 30 25.109890109890102)"><path d="M12.55 0 C26.87 -0.52, 41.11 -0.16, 47.45 0 M12.55 0 C23.95 -0.27, 34.21 0.81, 47.45 0 M47.45 0 C56.7 -0.05, 59.95 3.1, 60 12.55 M47.45 0 C55.1 0.74, 59.67 2.8, 60 12.55 M60 12.55 C59.42 19.1, 60.19 23.67, 60 37.66 M60 12.55 C59.03 19.21, 59.81 25.69, 60 37.66 M60 37.66 C58.25 44.8, 55.34 48.39, 47.45 50.22 M60 37.66 C60.62 47.03, 55.8 51.93, 47.45 50.22 M47.45 50.22 C34.91 51.21, 21.67 51.11, 12.55 50.22 M47.45 50.22 C38.27 50.23, 27.53 50.92, 12.55 50.22 M12.55 50.22 C3.72 51.3, 0.32 44.46, 0 37.66 M12.55 50.22 C6.41 50.5, -1.76 47.08, 0 37.66 M0 37.66 C-0.49 28.36, -0.51 19.42, 0 12.55 M0 37.66 C-0.74 30.28, -0.65 23.58, 0 12.55 M0 12.55 C-0.55 5.8, 4.8 0.96, 12.55 0 M0 12.55 C-0.94 5.17, 6.32 -2.07, 12.55 0" stroke="#495057" stroke-width="2" fill="none"></path></g><g stroke-opacity="0.8" fill-opacity="0.8" stroke-linecap="round" transform="translate(499.91952935183394 388.6224524039869) rotate(180 25.164835164835154 15.549450549450512)"><path d="M23.05 0.55 C28.05 0.04, 35.04 0.9, 39.57 2.85 C44.11 4.8, 48.91 8.99, 50.27 12.25 C51.63 15.5, 50.32 19.49, 47.75 22.36 C45.17 25.23, 39.7 28.12, 34.83 29.45 C29.96 30.78, 23.71 31.31, 18.52 30.35 C13.33 29.39, 6.83 26.47, 3.68 23.7 C0.53 20.93, -1 16.92, -0.37 13.73 C0.26 10.53, 2.74 6.91, 7.48 4.53 C12.21 2.15, 23.99 0.16, 28.04 -0.54 C32.09 -1.24, 31.71 0.12, 31.77 0.34 M23.43 -0.92 C28.5 -1.34, 36.19 -0.26, 40.66 2.1 C45.13 4.46, 49.19 9.56, 50.27 13.24 C51.36 16.93, 49.62 21.55, 47.15 24.22 C44.68 26.88, 40.24 28.12, 35.45 29.24 C30.66 30.36, 23.66 31.75, 18.43 30.94 C13.2 30.14, 7.02 27.43, 4.07 24.4 C1.12 21.38, 0.13 16.29, 0.72 12.79 C1.31 9.3, 3.47 5.55, 7.61 3.44 C11.76 1.34, 22.84 0.47, 25.59 0.14 C28.34 -0.19, 24.31 1.11, 24.11 1.48" stroke="#495057" stroke-width="1" fill="none"></path></g><g stroke-opacity="0.8" fill-opacity="0.8" stroke-linecap="round" transform="translate(529.3700788023837 422.1389359204703) rotate(180 3.186813186813197 3.186813186813197)"><path d="M3.27 -0.04 C3.98 -0.03, 5.11 0.56, 5.63 1.04 C6.14 1.52, 6.34 2.21, 6.35 2.85 C6.35 3.48, 6.01 4.31, 5.65 4.86 C5.28 5.42, 4.83 6.03, 4.17 6.2 C3.51 6.38, 2.36 6.2, 1.69 5.92 C1.02 5.64, 0.43 5.1, 0.15 4.52 C-0.13 3.95, -0.18 3.16, 0.02 2.48 C0.22 1.79, 0.81 0.84, 1.37 0.4 C1.92 -0.05, 2.95 -0.08, 3.36 -0.18 C3.76 -0.28, 3.78 -0.28, 3.8 -0.19 M2.93 -0.45 C3.68 -0.43, 4.71 0.32, 5.27 0.88 C5.83 1.43, 6.1 2.29, 6.3 2.87 C6.49 3.46, 6.67 3.81, 6.44 4.39 C6.21 4.97, 5.57 6.01, 4.89 6.36 C4.22 6.72, 3.1 6.77, 2.39 6.51 C1.68 6.25, 1.08 5.43, 0.63 4.79 C0.18 4.15, -0.44 3.3, -0.33 2.64 C-0.21 1.99, 0.79 1.26, 1.32 0.88 C1.85 0.5, 2.57 0.48, 2.84 0.39 C3.11 0.3, 2.89 0.41, 2.94 0.34" stroke="#495057" stroke-width="1" fill="none"></path></g><g stroke-opacity="0.8" fill-opacity="0.8" stroke-linecap="round" transform="translate(512.2272216595263 423.0180567995916) rotate(180 3.516483516483504 3.186813186813197)"><path d="M4.04 0.16 C4.78 0.18, 5.52 0.48, 5.99 0.92 C6.46 1.36, 6.75 2.12, 6.84 2.8 C6.92 3.47, 6.94 4.41, 6.51 4.96 C6.08 5.51, 5.01 5.91, 4.23 6.09 C3.46 6.26, 2.53 6.27, 1.87 6.02 C1.21 5.77, 0.54 5.24, 0.26 4.6 C-0.03 3.96, -0.02 2.86, 0.17 2.16 C0.36 1.46, 0.72 0.79, 1.38 0.39 C2.04 -0.02, 3.72 -0.21, 4.15 -0.26 C4.57 -0.31, 3.98 0.02, 3.92 0.07 M3.29 0.23 C4.02 0.26, 4.81 0.62, 5.48 0.92 C6.16 1.22, 7.04 1.4, 7.33 2.04 C7.62 2.67, 7.57 4, 7.22 4.72 C6.87 5.44, 5.95 6.1, 5.21 6.34 C4.48 6.58, 3.61 6.41, 2.79 6.17 C1.98 5.94, 0.73 5.46, 0.31 4.93 C-0.1 4.41, 0.21 3.6, 0.29 3.01 C0.37 2.41, 0.32 1.81, 0.78 1.36 C1.24 0.91, 2.63 0.57, 3.04 0.29 C3.45 0.01, 3.14 -0.33, 3.24 -0.31" stroke="#495057" stroke-width="1" fill="none"></path></g><g stroke-opacity="0.8" fill-opacity="0.8" stroke-linecap="round" transform="translate(522.6667820990867 413.1279469094815) rotate(180 1.9780219780220705 7.967032967032992)"><path d="M0.99 0 C1.62 -0.02, 2.41 0.04, 2.97 0 M0.99 0 C1.56 0.02, 2.16 -0.02, 2.97 0 M2.97 0 C3.09 -0.51, 3.78 0.1, 3.96 0.99 M2.97 0 C3.83 0.18, 3.23 -0.05, 3.96 0.99 M3.96 0.99 C3.99 4.33, 3.84 7.12, 3.96 14.95 M3.96 0.99 C4.03 4.47, 3.94 7.9, 3.96 14.95 M3.96 14.95 C4.81 15.05, 4.61 16.4, 2.97 15.93 M3.96 14.95 C4.33 16.26, 3.94 15.69, 2.97 15.93 M2.97 15.93 C2.52 15.9, 2.14 15.92, 0.99 15.93 M2.97 15.93 C2.31 15.93, 1.53 15.95, 0.99 15.93 M0.99 15.93 C0.78 15.57, 0.18 15.32, 0 14.95 M0.99 15.93 C-0.04 15.59, -0.52 15.6, 0 14.95 M0 14.95 C0.05 11.15, 0.63 8.31, 0 0.99 M0 14.95 C-0.16 9.78, 0.3 4, 0 0.99 M0 0.99 C0 -0.39, 0.76 0.52, 0.99 0 M0 0.99 C-0.65 -0.31, -0.34 0.25, 0.99 0" stroke="#495057" stroke-width="1" fill="none"></path></g><g stroke-linecap="round" transform="translate(350.62860107421875 326.5460724948198) rotate(0 32.621612548828125 49.192352294921875)"><path d="M-0.64 0.75 L63.65 0.96 L64.1 98.26 L-0.72 99.54" stroke="none" stroke-width="0" fill="#ffffff"></path><path d="M0 0 C22.52 0.22, 43.94 0.56, 65.24 0 M0 0 C21.17 -0.36, 41.01 0.25, 65.24 0 M65.24 0 C67.42 35.97, 67.38 73.48, 65.24 98.38 M65.24 0 C65.48 25.42, 64.1 49.76, 65.24 98.38 M65.24 98.38 C50.65 98.15, 35.49 99.58, 0 98.38 M65.24 98.38 C45.14 98.23, 24.07 97.61, 0 98.38 M0 98.38 C-0.36 77.2, -0.15 57.09, 0 0 M0 98.38 C-1.5 72.45, -0.22 44.65, 0 0" stroke="transparent" stroke-width="2" fill="none"></path></g><g stroke-linecap="round"><g stroke-opacity="0.8" fill-opacity="0.8" transform="translate(301.1999906877427 378.6367258495246) rotate(270 -0.41476838889616374 -52.362159960158124)"><path d="M-0.27 0.5 C-0.41 -16.94, -1.59 -87.57, -1.5 -104.96 M1.79 -0.29 C2.1 -17.51, 1.15 -85.97, 0.86 -103.54" stroke="#495057" stroke-width="2" fill="none"></path></g></g><mask></mask><g stroke-linecap="round"><g stroke-opacity="0.8" fill-opacity="0.8" transform="translate(250.09791046493285 328.4628009953416) rotate(270 -1.4963447152916842 0.076977557027476)"><path d="M-0.2 -0.07 C-0.63 -0.02, -2.2 0.42, -2.67 0.42 M0.35 -0.41 C-0.1 -0.47, -2.18 -0.18, -2.78 -0.07" stroke="#495057" stroke-width="2" fill="none"></path></g></g><mask></mask><g stroke-linecap="round"><g stroke-opacity="0.8" fill-opacity="0.8" transform="translate(301.5272150299486 383.94066484135277) rotate(270 -0.39911161294821795 -52.16409172600129)"><path d="M1.09 0.9 C1.06 -16.56, -0.4 -87.43, -0.85 -105 M0.21 0.32 C0.07 -16.97, -1.93 -86.54, -1.83 -103.81" stroke="#495057" stroke-width="2" fill="none"></path></g></g><mask></mask><g stroke-linecap="round"><g stroke-opacity="0.8" fill-opacity="0.8" transform="translate(256.7011839310045 428.85313046705755) rotate(270 45.58333333333326 -49.25)"><path d="M-0.05 -0.67 C0.18 -6.47, -1.09 -22.62, 2.49 -33.87 C6.07 -45.13, 12.26 -58.21, 21.45 -68.21 C30.65 -78.21, 45.9 -88.92, 57.66 -93.87 C69.43 -98.81, 86.38 -97.31, 92.04 -97.89 M-1.54 1.59 C-1.03 -4.1, 1.03 -21.03, 4.76 -32.45 C8.49 -43.87, 11.95 -56.91, 20.84 -66.92 C29.72 -76.93, 46.38 -87.48, 58.08 -92.52 C69.78 -97.56, 85.77 -96.3, 91.03 -97.17" stroke="#495057" stroke-width="2" fill="none"></path></g></g><mask></mask><g stroke-linecap="round" transform="translate(620.7371520996094 332.56908274872603) rotate(0 36.699554443359375 45.09942626953125)"><path d="M-1.74 -1.94 L73.54 0.77 L73.83 91.86 L1 88.63" stroke="none" stroke-width="0" fill="#ffffff"></path><path d="M0 0 C23.42 0.47, 48.91 -1.97, 73.4 0 M0 0 C28.67 -0.04, 57.28 0.92, 73.4 0 M73.4 0 C74.44 34.41, 73.8 64.61, 73.4 90.2 M73.4 0 C73.2 19.57, 72.67 39.14, 73.4 90.2 M73.4 90.2 C59.95 91.75, 43.05 88.72, 0 90.2 M73.4 90.2 C55.84 89.09, 38.55 90.11, 0 90.2 M0 90.2 C-1.23 53.64, 1.62 22.33, 0 0 M0 90.2 C0.77 66.03, 0.08 42.42, 0 0" stroke="transparent" stroke-width="2" fill="none"></path></g><g stroke-linecap="round"><g stroke-opacity="0.8" fill-opacity="0.8" transform="translate(744.0020037533527 378.8582459770149) rotate(90 0.41476838889616374 -52.36215996015812)"><path d="M0.58 -0.08 C0.39 -17.41, -0.06 -86.61, 0.05 -104 M-0.58 -1.17 C-0.48 -18.84, 2.14 -88.78, 2.35 -105.75" stroke="#495057" stroke-width="2" fill="none"></path></g></g><mask></mask><g stroke-linecap="round"><g stroke-opacity="0.8" fill-opacity="0.8" transform="translate(795.1040839761625 328.6843211228318) rotate(90 1.4963447152916842 0.076977557027476)"><path d="M-0.23 0.21 C0.26 0.26, 2.6 0.25, 3.12 0.24 M0.3 0.02 C0.74 -0.05, 2.51 -0.42, 2.9 -0.34" stroke="#495057" stroke-width="2" fill="none"></path></g></g><mask></mask><g stroke-linecap="round"><g stroke-opacity="0.8" fill-opacity="0.8" transform="translate(743.6747794111468 384.162184968843) rotate(90 0.39911161294821795 -52.16409172600128)"><path d="M0.42 0.3 C0.63 -17.22, 0.5 -86.79, 0.49 -104.36 M-0.82 -0.59 C-0.72 -17.97, -0.65 -85.57, -0.62 -102.84" stroke="#495057" stroke-width="2" fill="none"></path></g></g><mask></mask><g stroke-linecap="round"><g stroke-opacity="0.8" fill-opacity="0.8" transform="translate(788.500810510091 429.0746505945478) rotate(90 -45.58333333333326 -49.24999999999999)"><path d="M-0.31 -0.03 C-1 -5.83, -0.36 -23.1, -3.74 -34.47 C-7.13 -45.83, -11.51 -58.08, -20.62 -68.22 C-29.73 -78.37, -46.56 -90.22, -58.4 -95.34 C-70.24 -100.47, -86.04 -98.63, -91.65 -98.98 M1.73 -1.09 C0.81 -6.78, -1.1 -22.38, -4.91 -33.35 C-8.71 -44.32, -12.13 -56.7, -21.1 -66.94 C-30.06 -77.17, -47.27 -89.45, -58.71 -94.77 C-70.14 -100.09, -84.31 -98.32, -89.72 -98.84" stroke="#495057" stroke-width="2" fill="none"></path></g></g><mask></mask><g stroke-opacity="0.8" fill-opacity="0.8" stroke-linecap="round" transform="translate(22.139156297940644 38.3417428139723) rotate(335.7709256448214 60 34.999999999999986)"><path d="M-0.78 0.02 L121.16 0.6 L118.51 71.33 L1.95 69.74" stroke="none" stroke-width="0" fill="#b2f2bb"></path><path d="M0 0 C26.14 -0.24, 54.45 -1.03, 120 0 M0 0 C27.86 -0.49, 53.85 -1.53, 120 0 M120 0 C120.95 22.88, 122.2 42.22, 120 70 M120 0 C120.87 23.48, 121.48 46.33, 120 70 M120 70 C76.02 68.17, 31.22 70.3, 0 70 M120 70 C93.19 68.74, 65.21 70, 0 70 M0 70 C-1.59 50.48, -2.29 31.9, 0 0 M0 70 C-0.74 55.91, 0.19 41.83, 0 0" stroke="#495057" stroke-width="2" fill="none"></path></g><g stroke-linecap="round"><g stroke-opacity="0.8" fill-opacity="0.8" transform="translate(15.824414077018673 59.98130588955223) rotate(335.7709256448214 60 0)"><path d="M0.24 -0.15 C20.1 -0.18, 99.8 -0.98, 119.77 -0.86 M-1.09 -1.28 C18.53 -1.11, 98.62 0.26, 118.7 0.22" stroke="#495057" stroke-width="2" fill="none"></path></g></g><mask></mask><g stroke-linecap="round"><g stroke-opacity="0.8" fill-opacity="0.8" transform="translate(47.71819684708231 74.48873599717712) rotate(335.7709256448214 0 20)"><path d="M-0.11 -0.4 C-0.12 6.32, -0.03 33.5, 0.03 40.24 M-0.83 0.59 C-0.92 7.15, -0.53 32.73, -0.38 39.4" stroke="#495057" stroke-width="2" fill="none"></path></g></g><mask></mask><g stroke-linecap="round"><g stroke-opacity="0.8" fill-opacity="0.8" transform="translate(120.80841373306228 41.523280416585436) rotate(335.7709256448214 0 20)"><path d="M0.03 0.24 C0.1 6.98, 0.37 33.49, 0.28 40.02 M-0.61 -0.11 C-0.59 6.75, -0.21 34.08, -0.01 40.73" stroke="#495057" stroke-width="2" fill="none"></path></g></g><mask></mask><g stroke-opacity="0.8" fill-opacity="0.8" stroke-linecap="round" transform="translate(693.2151605633915 185.4872252773909) rotate(245.16814461566477 60 34.999999999999986)"><path d="M-0.31 -1.64 L119.9 -0.25 L120.17 71.11 L-0.01 69.69" stroke="none" stroke-width="0" fill="#b2f2bb"></path><path d="M0 0 C35.75 0.73, 69.46 -0.81, 120 0 M0 0 C37.71 0.03, 74.63 0.64, 120 0 M120 0 C121.66 21.79, 120.24 46.82, 120 70 M120 0 C120.39 18.47, 119.95 37.75, 120 70 M120 70 C94.33 70.12, 66.9 71.49, 0 70 M120 70 C73.95 69.68, 29.95 69.33, 0 70 M0 70 C-1.18 53.82, 2.11 34.5, 0 0 M0 70 C0.57 48.34, 1.14 27.7, 0 0" stroke="#495057" stroke-width="2" fill="none"></path></g><g stroke-linecap="round"><g stroke-opacity="0.8" fill-opacity="0.8" transform="translate(678.885822178926 225.91448178332246) rotate(245.16814461566477 60 0)"><path d="M0.19 -0.84 C20.13 -0.85, 99.3 0.02, 119.26 0.1 M-1.17 1.34 C19.2 1.52, 101.53 1.79, 121.58 1.68" stroke="#495057" stroke-width="2" fill="none"></path></g></g><mask></mask><g stroke-linecap="round"><g stroke-opacity="0.8" fill-opacity="0.8" transform="translate(774.3327592671983 234.80836510085476) rotate(245.16814461566477 0 20)"><path d="M-0.34 0.04 C-0.36 6.75, -0.16 33.2, -0.03 39.82 M0.49 -0.41 C0.39 6.4, -0.45 33.65, -0.48 40.43" stroke="#495057" stroke-width="2" fill="none"></path></g></g><mask></mask><g stroke-linecap="round"><g stroke-opacity="0.8" fill-opacity="0.8" transform="translate(741.2214481371526 162.69663626449307) rotate(245.16814461566477 0 20)"><path d="M-0.03 -0.18 C0.09 6.45, 0.34 33.08, 0.41 39.8 M-0.72 -0.75 C-0.6 5.95, 0.03 33.47, 0.19 40.4" stroke="#495057" stroke-width="2" fill="none"></path></g></g><mask></mask><g stroke-linecap="round" transform="translate(922.0957185118132 439.0347072902171) rotate(0 44.1536865234375 2.861765077791148)"><path d="M-0.65 0.54 L89.14 0.48 L88.88 6.53 L0.6 5.94" stroke="none" stroke-width="0" fill="#ffffff"></path><path d="M0 0 C24.42 -0.76, 47.99 0.25, 88.31 0 M0 0 C21.52 0.45, 42.78 0.07, 88.31 0 M88.31 0 C88.42 2.13, 88.11 4.16, 88.31 5.72 M88.31 0 C88.24 1.65, 88.44 3.21, 88.31 5.72 M88.31 5.72 C68.19 5.34, 46.73 5.25, 0 5.72 M88.31 5.72 C68.23 5.42, 48.7 5.79, 0 5.72 M0 5.72 C0.3 4.06, -0.26 2.69, 0 0 M0 5.72 C0.02 4.21, 0.09 2.91, 0 0" stroke="transparent" stroke-width="2" fill="none"></path></g><g stroke-linecap="round" transform="translate(27.652923583984375 438.95668650849166) rotate(0 43.7108154296875 0.9921808887041834)"><path d="M0.68 0.73 L86.61 -0.35 L86.5 2.3 L0.27 2.36" stroke="none" stroke-width="0" fill="#ffffff"></path><path d="M0 0 C18.01 0.71, 37.16 0.87, 87.42 0 M0 0 C22.34 0.11, 45.96 -0.11, 87.42 0 M87.42 0 C87.43 0.63, 87.47 1.53, 87.42 1.98 M87.42 0 C87.38 0.48, 87.39 0.86, 87.42 1.98 M87.42 1.98 C52.58 1.13, 18.73 2.02, 0 1.98 M87.42 1.98 C58.14 2.57, 28.75 1.94, 0 1.98 M0 1.98 C0.05 1.15, -0.01 0.5, 0 0 M0 1.98 C0.04 1.25, -0.01 0.54, 0 0" stroke="transparent" stroke-width="2" fill="none"></path></g><g stroke-linecap="round"><g stroke-opacity="0.8" fill-opacity="0.8" transform="translate(1014.605582737052 438.5800472138859) rotate(0 -0.41476838889616374 -52.362159960158124)"><path d="M0.77 -1.08 C0.84 -18.54, 0.37 -86.38, -0.09 -103.61 M-0.29 0.96 C-0.27 -16.29, -0.75 -87.81, -0.64 -105.15" stroke="#495057" stroke-width="2" fill="none"></path></g></g><mask></mask><g stroke-linecap="round"><g stroke-opacity="0.8" fill-opacity="0.8" transform="translate(1013.9427126259262 333.85572729356966) rotate(0 -1.4963447152916842 0.076977557027476)"><path d="M0.22 0.33 C-0.37 0.42, -2.82 0.26, -3.33 0.23 M-0.1 0.19 C-0.6 0.2, -2.22 -0.42, -2.7 -0.36" stroke="#495057" stroke-width="2" fill="none"></path></g></g><mask></mask><g stroke-linecap="round"><g stroke-opacity="0.8" fill-opacity="0.8" transform="translate(1009.6684720837067 438.18391074557223) rotate(0 -0.39911161294821795 -52.16409172600129)"><path d="M-1.12 0.25 C-1.28 -17.32, -0.41 -86.96, -0.19 -104.31 M0.49 -0.67 C0.16 -17.52, -0.73 -85.21, -0.82 -102.76" stroke="#495057" stroke-width="2" fill="none"></path></g></g><mask></mask><g stroke-linecap="round"><g stroke-opacity="0.8" fill-opacity="0.8" transform="translate(915.2350437501078 435.0733348923578) rotate(0 45.58333333333326 -49.25)"><path d="M0.61 0.02 C1.51 -5.55, 0.97 -21.81, 4.33 -33.18 C7.69 -44.56, 11.79 -57.92, 20.78 -68.21 C29.76 -78.49, 46.46 -89.8, 58.26 -94.91 C70.07 -100.01, 86.21 -98.37, 91.6 -98.85 M-0.54 -1.01 C0.4 -6.97, 0.52 -24.07, 3.91 -35.05 C7.3 -46.04, 10.62 -57.07, 19.8 -66.91 C28.99 -76.75, 47.24 -88.81, 59 -94.1 C70.76 -99.39, 84.91 -97.92, 90.36 -98.65" stroke="#495057" stroke-width="2" fill="none"></path></g></g><mask></mask><g stroke-linecap="round"><g stroke-opacity="0.8" fill-opacity="0.8" transform="translate(21.655048620474645 441.12221799082494) rotate(0 0.41476838889616374 -52.362159960158124)"><path d="M-1.06 -0.17 C-1.12 -17.31, -0.56 -86.25, -0.16 -103.73 M0.58 -1.3 C0.88 -18.69, 1.98 -88.24, 2.03 -105.33" stroke="#495057" stroke-width="2" fill="none"></path></g></g><mask></mask><g stroke-linecap="round"><g stroke-opacity="0.8" fill-opacity="0.8" transform="translate(22.317918731600457 336.3978980705087) rotate(0 1.4963447152916842 0.076977557027476)"><path d="M-0.29 0.29 C0.28 0.31, 2.65 0.07, 3.15 0.06 M0.2 0.14 C0.77 0.21, 2.41 0.38, 2.95 0.47" stroke="#495057" stroke-width="2" fill="none"></path></g></g><mask></mask><g stroke-linecap="round"><g stroke-opacity="0.8" fill-opacity="0.8" transform="translate(26.592159273820016 440.72608152251127) rotate(0 0.39911161294821795 -52.16409172600129)"><path d="M0.53 -0.31 C0.69 -17.82, -0.24 -86.64, -0.06 -104.06 M-0.65 -1.52 C-0.03 -19.5, 1.88 -89.01, 2.2 -106.04" stroke="#495057" stroke-width="2" fill="none"></path></g></g><mask></mask><g stroke-linecap="round"><g stroke-opacity="0.8" fill-opacity="0.8" transform="translate(121.02558760741886 437.61550566929685) rotate(0 -45.58333333333326 -49.25)"><path d="M-0.86 0.27 C-1.37 -5.37, 0.74 -22.84, -2.53 -34.14 C-5.8 -45.44, -11.41 -57.61, -20.49 -67.52 C-29.56 -77.43, -45.38 -88.43, -56.97 -93.59 C-68.55 -98.76, -84.26 -97.49, -90.02 -98.48 M0.89 -0.63 C0.24 -6.08, 0.57 -21.37, -3.06 -32.85 C-6.69 -44.33, -11.98 -59.04, -20.9 -69.53 C-29.81 -80.01, -44.86 -91, -56.52 -95.76 C-68.19 -100.52, -85.26 -97.79, -90.89 -98.08" stroke="#495057" stroke-width="2" fill="none"></path></g></g><mask></mask><g stroke-opacity="0.8" fill-opacity="0.8" stroke-linecap="round" transform="translate(1073.484186327214 13.363867029512562) rotate(0 40 40)"><path d="M48.33 -0.01 C54.92 0.88, 62.46 7.18, 67.51 12.35 C72.57 17.52, 77.09 24.01, 78.65 31.02 C80.21 38.03, 79.42 47.53, 76.87 54.4 C74.32 61.26, 68.9 68.04, 63.35 72.21 C57.79 76.38, 50.74 78.85, 43.54 79.43 C36.35 80.01, 26.52 78.97, 20.18 75.69 C13.85 72.4, 8.98 66.25, 5.54 59.72 C2.1 53.19, -0.96 43.92, -0.45 36.51 C0.06 29.1, 4.3 20.88, 8.62 15.28 C12.95 9.69, 18.1 5.02, 25.49 2.94 C32.88 0.86, 47.85 2.37, 52.95 2.81 C58.05 3.25, 56.39 4.89, 56.09 5.57 M30.22 1.22 C37.09 -0.84, 46.86 0.24, 54 2.58 C61.14 4.93, 68.9 9.52, 73.09 15.28 C77.27 21.05, 78.5 30.09, 79.12 37.18 C79.74 44.28, 79.96 51.35, 76.8 57.86 C73.63 64.37, 66.52 72.65, 60.12 76.27 C53.72 79.88, 45.74 80.22, 38.4 79.54 C31.07 78.85, 22.16 76.57, 16.11 72.17 C10.06 67.76, 4.64 59.54, 2.1 53.1 C-0.43 46.67, -0.54 40.44, 0.91 33.54 C2.35 26.63, 5.61 17.09, 10.79 11.67 C15.97 6.25, 28.8 2.71, 31.98 1.01 C35.16 -0.7, 29.84 0.68, 29.87 1.42" stroke="#495057" stroke-width="2" fill="none"></path></g><g stroke-linecap="round"><g stroke-opacity="0.8" fill-opacity="0.8" transform="translate(1113.484186327214 13.363867029512562) rotate(0 -20 20)"><path d="M0.51 0.67 C-6.09 7.33, -32.2 33.43, -39.14 39.83 M-0.68 -0.03 C-7.4 6.84, -33.28 34.62, -39.63 41.28" stroke="#495057" stroke-width="2" fill="none"></path></g></g><mask></mask><g stroke-linecap="round"><g stroke-opacity="0.8" fill-opacity="0.8" transform="translate(1113.484186327214 13.363867029512562) rotate(0 20 20)"><path d="M0.86 -0.17 C7.26 6.24, 32.24 32.5, 38.9 39.11 M-0.14 -1.3 C6.56 5.18, 34.26 33.21, 41.03 40.18" stroke="#495057" stroke-width="2" fill="none"></path></g></g><mask></mask><g stroke-linecap="round"><g stroke-opacity="0.8" fill-opacity="0.8" transform="translate(1113.484186327214 13.363867029512562) rotate(0 0 50)"><path d="M-1.1 -0.89 C-1.12 15.72, 0.7 82.8, 0.79 99.49 M0.52 1.26 C0.34 18.04, 0.61 84.27, 0.26 100.76" stroke="#495057" stroke-width="2" fill="none"></path></g></g><mask></mask><g stroke-linecap="round"><g stroke-opacity="0.8" fill-opacity="0.8" transform="translate(1093.484186327214 53.36386702951256) rotate(0 30 0)"><path d="M0.79 -0.51 C10.89 -0.49, 49.52 -0.7, 59.47 -0.75 M-0.25 -1.82 C9.74 -1.58, 48.2 0.07, 58.25 0.4" stroke="#495057" stroke-width="2" fill="none"></path></g></g><mask></mask><g stroke-linecap="round"><g stroke-opacity="0.8" fill-opacity="0.8" transform="translate(1153.484186327214 93.36386702951256) rotate(0 0 10)"><path d="M-0.24 -0.34 C-0.26 2.97, 0.19 16.19, 0.25 19.64 M0.64 0.67 C0.54 4.07, 0.08 17.02, -0.05 20.15" stroke="#495057" stroke-width="2" fill="none"></path></g></g><mask></mask><g stroke-linecap="round"><g stroke-opacity="0.8" fill-opacity="0.8" transform="translate(1153.484186327214 93.36386702951256) rotate(0 10 10)"><path d="M0.55 -0.79 C4.01 2.8, 17.11 17.45, 20.26 20.78 M-0.63 1.42 C2.75 4.73, 16.27 15.96, 19.44 19.07" stroke="#495057" stroke-width="2" fill="none"></path></g></g><mask></mask><g stroke-linecap="round"><g stroke-opacity="0.8" fill-opacity="0.8" transform="translate(1173.484186327214 93.36386702951256) rotate(0 0 10)"><path d="M0.12 0.36 C0.03 3.69, -0.29 16.29, -0.26 19.63 M-0.49 0.06 C-0.69 3.49, -0.92 16.9, -0.82 20.13" stroke="#495057" stroke-width="2" fill="none"></path></g></g><mask></mask><g stroke-opacity="0.8" fill-opacity="0.8" stroke-linecap="round" transform="translate(30.16293228130013 138.98819117994805) rotate(0 20 20)"><path d="M16.34 0.19 C20.33 -0.75, 26.63 0.62, 30.39 2.8 C34.15 4.97, 37.55 9.28, 38.9 13.25 C40.26 17.23, 40.02 22.59, 38.53 26.64 C37.03 30.69, 33.59 35.31, 29.94 37.55 C26.3 39.78, 20.92 40.91, 16.65 40.05 C12.38 39.2, 7.15 35.84, 4.32 32.44 C1.49 29.04, -0.47 23.85, -0.35 19.65 C-0.22 15.45, 2.07 10.46, 5.08 7.25 C8.09 4.05, 15.42 1.61, 17.7 0.4 C19.97 -0.82, 18.63 -0.26, 18.72 -0.03 M20.32 0.66 C24.37 0.3, 29.17 1.26, 32.49 3.81 C35.8 6.35, 39.34 11.54, 40.22 15.92 C41.1 20.29, 39.92 26.16, 37.75 30.06 C35.59 33.96, 31.37 37.75, 27.22 39.3 C23.06 40.85, 16.85 40.99, 12.83 39.38 C8.81 37.77, 5.07 33.33, 3.1 29.63 C1.12 25.93, 0.24 21.28, 0.96 17.19 C1.68 13.1, 4.23 8.05, 7.44 5.11 C10.64 2.18, 18.27 0.32, 20.2 -0.41 C22.13 -1.13, 19.06 0.48, 19.01 0.77" stroke="none" stroke-width="0" fill="#ffffff"></path><path d="M15.51 0.55 C19.35 -0.55, 25.05 0.55, 28.83 2.44 C32.62 4.33, 36.52 8.11, 38.21 11.91 C39.89 15.72, 40.15 21.19, 38.94 25.26 C37.73 29.34, 34.48 33.97, 30.95 36.35 C27.42 38.72, 21.91 39.99, 17.74 39.52 C13.57 39.04, 8.87 36.57, 5.94 33.49 C3.02 30.41, 0.56 25.27, 0.19 21.02 C-0.18 16.77, 1.15 11.42, 3.73 8 C6.31 4.59, 13.52 1.72, 15.68 0.53 C17.84 -0.67, 16.66 0.51, 16.68 0.83 M19.86 0.64 C23.92 0.5, 29.55 2.82, 32.82 5.48 C36.09 8.14, 38.76 12.61, 39.49 16.59 C40.22 20.57, 39.26 25.66, 37.21 29.37 C35.16 33.08, 31.21 37.18, 27.21 38.85 C23.22 40.51, 17.41 40.85, 13.24 39.35 C9.07 37.85, 4.34 33.63, 2.18 29.84 C0.01 26.06, -0.66 20.88, 0.25 16.62 C1.16 12.37, 4.32 7.07, 7.65 4.32 C10.98 1.58, 18.23 0.89, 20.22 0.16 C22.2 -0.56, 19.65 -0.24, 19.53 -0.04" stroke="#495057" stroke-width="2" fill="none"></path></g><g stroke-opacity="0.8" fill-opacity="0.8" stroke-linecap="round" transform="translate(705.2732316667103 108.73713210169859) rotate(0 20 20)"><path d="M15.81 0.73 C19.74 -0.43, 25.28 0.36, 29 2.25 C32.71 4.14, 36.48 8.06, 38.11 12.06 C39.74 16.07, 40.07 22.16, 38.78 26.29 C37.49 30.42, 33.93 34.58, 30.36 36.85 C26.79 39.12, 21.51 40.51, 17.35 39.9 C13.18 39.29, 8.33 36.32, 5.37 33.2 C2.41 30.07, -0.15 25.44, -0.42 21.16 C-0.68 16.87, 0.98 10.9, 3.77 7.49 C6.56 4.07, 14.14 1.87, 16.35 0.66 C18.55 -0.55, 16.99 -0.03, 17.02 0.22 M17.85 -0.6 C21.83 -1.26, 26.91 1.12, 30.43 3.55 C33.95 5.99, 37.54 9.97, 38.94 14.02 C40.33 18.07, 40.5 23.8, 38.8 27.86 C37.09 31.93, 32.69 36.36, 28.7 38.41 C24.71 40.47, 19.03 41.21, 14.84 40.19 C10.65 39.17, 6.06 35.79, 3.54 32.28 C1.02 28.76, -0.53 23.31, -0.28 19.1 C-0.03 14.88, 1.9 10.12, 5.03 6.96 C8.15 3.8, 16.39 1.13, 18.48 0.14 C20.57 -0.85, 17.65 0.72, 17.55 1.02" stroke="none" stroke-width="0" fill="#ffffff"></path><path d="M18 -0.03 C22.11 -0.69, 27.88 1.12, 31.46 3.61 C35.04 6.1, 38.25 10.85, 39.47 14.89 C40.69 18.92, 40.57 23.96, 38.77 27.82 C36.97 31.67, 32.61 36.13, 28.68 38 C24.74 39.88, 19.35 40.11, 15.17 39.08 C10.99 38.05, 6.12 35.19, 3.59 31.82 C1.07 28.46, -0.3 23.18, 0.02 18.91 C0.34 14.64, 2.52 9.31, 5.52 6.21 C8.53 3.12, 15.8 1.36, 18.04 0.32 C20.29 -0.72, 18.88 -0.35, 18.99 -0.01 M20.11 0.73 C24.19 0.5, 30.2 2.24, 33.57 4.98 C36.95 7.73, 39.73 12.83, 40.36 17.2 C40.99 21.56, 39.86 27.6, 37.36 31.18 C34.86 34.75, 29.44 37.4, 25.34 38.65 C21.24 39.9, 16.64 40.35, 12.75 38.68 C8.85 37.02, 4.13 32.59, 1.98 28.68 C-0.17 24.76, -1 19.29, -0.15 15.2 C0.7 11.12, 3.59 6.74, 7.07 4.19 C10.55 1.64, 18.41 0.54, 20.72 -0.12 C23.03 -0.78, 20.9 -0.13, 20.92 0.23" stroke="#495057" stroke-width="2" fill="none"></path></g></svg>